<svg id="Layer_1" xmlns="http://www.w3.org/2000/svg" viewBox="0 0 244 235"><style>.st0{fill:#a6def4}.st1{fill:#fff}.st2{fill:none;stroke:#4f3453;stroke-width:.612;stroke-linecap:round;stroke-linejoin:round}.st3{fill:#f2f5f8}.st4{fill:none;stroke:#4d3251;stroke-width:.612;stroke-linecap:round;stroke-linejoin:round}.st5{fill:#1d93d1}.st6{fill:#225fac}.st7{fill:none;stroke:#4d3251;stroke-width:.612}.st8{fill:#d1edf8}.st9{fill:#0595db}.st10{stroke:#4ec8f4;stroke-width:.612;stroke-linejoin:round}.st10,.st12,.st13{fill:none;stroke-linecap:round}.st12{stroke-linejoin:round;stroke:#225fac;stroke-width:.919}.st13{stroke:#a6def4;stroke-width:.612}.st15,.st16{fill:none;stroke:#4d3251}.st15{stroke-linecap:round;stroke-width:.612}.st16{stroke-width:.5}</style><path class="st0" d="M68.6 189v-40.6h-59s.5 13 5 16c4.5 3.1 20.6 4.6 26.7 8.2 6.1 3.7 13.5 16.4 27.3 16.4"/><path class="st1" d="M153 217h9v-68h-9v68z"/><path class="st2" d="M153 217h9v-68h-9v68z"/><path class="st1" d="M157 138s-38-.3-40.9 2.7.2 8.4 4.9 10.8c4.7 2.4 21.5 5.4 36.4 5.5 12.2.1 28.2-2.1 34.6-4.8 4.1-1.6 10.6-6.1 6.9-10.1-3.6-3.9-29.5-4-41.9-4.1"/><path class="st2" d="M157 138s-38-.3-40.9 2.7.2 8.4 4.9 10.8c4.7 2.4 21.5 5.4 36.4 5.5 12.2.1 28.2-2.1 34.6-4.8 4.1-1.6 10.6-6.1 6.9-10.1-3.6-3.9-29.5-4-41.9-4.1z"/><path class="st1" d="M122 223.9s.5-4.2 2.6-5.7c2.2-1.4 59-1.7 63.6 0 4.6 1.7 3.7 5.2 3.7 5.2H183s.2-2.5-1.6-2.8-49.7-.1-49.7-.1-1.8 0-2.5.9c-.6.9-.6 2.6-.6 2.6l-6.6-.1z"/><path class="st2" d="M122 223.9s.5-4.2 2.6-5.7c2.2-1.4 59-1.7 63.6 0 4.6 1.7 3.7 5.2 3.7 5.2H183s.2-2.5-1.6-2.8-49.7-.1-49.7-.1-1.8 0-2.5.9c-.6.9-.6 2.6-.6 2.6l-6.6-.1z"/><path class="st1" d="M122.5 226h6.3s3.1 4.7-.6 7h-5s-4.4-2.7-.7-7"/><path class="st2" d="M122.5 226h6.3s3.1 4.7-.6 7h-5s-4.4-2.7-.7-7z"/><path class="st1" d="M191 229c0 2.2-1.8 4-4 4s-4-1.8-4-4 1.8-4 4-4 4 1.8 4 4"/><path class="st2" d="M191 229c0 2.2-1.8 4-4 4s-4-1.8-4-4 1.8-4 4-4 4 1.8 4 4z"/><path class="st1" d="M160.2 61l36.7.2s9 .2 10.7 9.9c.8 4.4.9 24.3-3.6 26-4.7 1.7-46.5.6-51.5 0-4.9-.6-8.4-3.1-10.3-9.1-1.9-6-1.9-21.6 3.6-24.5 5.6-2.9 9.7-2.3 14.4-2.5"/><path class="st2" d="M160.2 61l36.7.2s9 .2 10.7 9.9c.8 4.4.9 24.3-3.6 26-4.7 1.7-46.5.6-51.5 0-4.9-.6-8.4-3.1-10.3-9.1-1.9-6-1.9-21.6 3.6-24.5 5.6-2.9 9.7-2.3 14.4-2.5z"/><path class="st3" d="M150 138h14v-37h-14v37z"/><path class="st4" d="M150 138h14v-37h-14v37z"/><path class="st5" d="M109.9 208s-3.1.5-4.2 1.5c-1.2 1-2.9 5.1-3.1 7.4-.2 2.2-.8 5.6-1.5 6.6-.8 1-7.5 3.4-10.2 3.4s-10.2 3.4-9.8 7.1h33.7s.6-2.7.2-7.4-2.3-9.3-2.1-10.3c0-.9 0-5.1-3-8.3m39.1 7.5s-1.2-3.4-3-4.1c-1.8-.7-6-.5-6.4 1.6s-1.4 12.4-2 13.5-4.8 3.2-5.6 4.1-4 2.8-2.8 3.2c1.2.5 23.7 0 23.7 0s.2-3-.4-5.7c-.6-2.7-3.6-4.4-3.8-6.2-.1-1.8.3-6.4.3-6.4"/><path class="st6" d="M125.6 132.1s-4.4 11.3-1.7 13.7c2.7 2.4 23.1 3.2 31.1 3.2s30.6-1.5 33.6-3.3c2.9-1.8 3.1-6.5 1.5-9.5s-2.8-6.3-7.6-7.6c-4.8-1.2-49.3-6.8-56.9 3.5"/><path class="st6" d="M153 132.9s.2 3.3-.6 8.4c-.8 5-1 6.8-3.1 8.4-2.2 1.6-28.7 11.3-30.3 12.9-1.6 1.6-3.9 4.1-7.5 3.4-3.7-.7-9.6-1.4-11.1-4.2-1.4-2.9-3.8-10.9-1.3-16.1 2.5-5.1 31.9-17.5 36.3-18.2 4.4-.9 12.2-.9 17.6 5.4"/><path class="st6" d="M184.1 128.5s4.9 2.3 5.9 7.3 1.5 6.8.1 9.1c-1.5 2.3-19.7 14.7-21.5 16.2-4.2 3.3-10 12.6-13.6 13.4-3.7.8-10.5 1-12.8-1.1-2.4-2.1-5.6-7.5-5-13.3.5-5.8 22-29.5 25.8-31.9 3.6-2.4 13.8-3.5 21.1.3m-78.6 20s9.4-.3 11.9 1.8c2.6 2.1 4.5 4.5 4.5 8.7s-7.7 61.9-7.7 61.9H100s-3.7-71.9-1.4-74.3c2.4-2.3 6.9 1.9 6.9 1.9"/><path class="st6" d="M137 160.2l.3 63.4s10.5.9 14.3.2c3.7-.7 9-56.9 11.3-60.9 2.2-4-25.9-2.7-25.9-2.7"/><path class="st3" d="M61 107.6s0-2.8 1.9-4.1c1.9-1.3 5.8-2.7 7.2-2.4 1.4.3 5.8 1.3 6.6 2.6.9 1.3-.4 4.4-.4 4.4l-15.3-.5z"/><path class="st7" d="M61 107.6s0-2.8 1.9-4.1c1.9-1.3 5.8-2.7 7.2-2.4 1.4.3 5.8 1.3 6.6 2.6.9 1.3-.4 4.4-.4 4.4l-15.3-.5z"/><path class="st8" d="M146.7 52s-7.4 0-9.7.9c-1.5.6-5.1 3.2-6.5 6.2s-3.2 9.1-3.8 11.4c-.6 2.3-3.5 7.6-4.3 8.7-.9 1.1-10.4 12.4-11.4 13.7-1 1.2-3 3-3 4.3 0 1.2 0 3.6.9 4.7s4.2 1.2 5.6 1.2 4.5-2 5.3-2c.9 0 11.1-6.7 13.3-7.9 2.2-1.2 8.4-7.4 9.7-10.6s4.3-21.4 4.2-23.5c-.1-2.2-.3-7.1-.3-7.1"/><path class="st9" d="M146.8 58.8s18.3-2.1 22.3-1.8 14 .9 17.8 4.8c3.7 3.9 7.4 7.5 8.6 14.8 1.1 7.2 2.3 35.5.9 46.7-1.4 11.1-3 18.2-5.9 21.1-3 2.9-.4-5.8-1.8-8.5-1-2-2.9-8.4-10.9-9s-11.7 1.8-17.2 1.2c-5.4-.6-13.7-2.4-16.6-2.1-2.9.3-5.3.3-8.5.9s-.1-2.7 1.4-4.2c1.4-1.5 2.3-10.2 3.1-12.6.9-2.4 3.4-5.7 3.7-10.2s-2-12.6-2-17.8c-.1-5.2-2.9-21.2 5.1-23.3"/><path class="st9" d="M147.7 52s12.1 0 18.1.2 20 1.4 24.4 3c5.5 2 8.6 5.9 10 8.2 1.9 3.2 1.9 9.1 1.3 11.9-.6 2.8-6.8 9.9-10.8 9.7-4-.2-39.8-.6-43.1-2-3.2-1.4-6.6-3.2-7.9-8-1.3-4.8-.8-16.3.2-18.5 1-2.3 5.2-4.1 7.8-4.5"/><path class="st8" d="M118 93s4.4-.2 4 2.6c-.4 2.8-.7 6-5.2 7.5-2.3.8-16.4 1.8-20.4 1.8s-13 .3-17.8-1.3c-1.8-.6-4.1-2.4-3.4-3 .7-.5 9.8-2.2 13.3-3.3 3.5-1.1 23.7-6.2 25.4-6.3 1.6-.1 4.1 2 4.1 2"/><path class="st8" d="M82.3 99.4c-1.9-.7-4.9-.6-7.3-1.2s-5.3-1.7-6.9-.9c-1.5.8-6.8 5.1-6.9 6.1-.1.9-.6 2.2.4 2.2s1.7-1.7 2.4-2.2c.7-.5 4.5-1.9 5.2-1.9s2.7.5 2.5 1.2c-.1.8-1.5 1.9-2 2.5-.4.6-.6 1.6-.1 1.7.4.2 1.7.2 2.5-.5.8-.6 4.8-2.2 5.3-2.6.6-.5 3.1.8 4.1.5s2.4-1.1 2.4-2.2c.1-1.1-.7-2.3-1.6-2.7"/><path class="st3" d="M108 109h30v-2h-30v2z"/><path class="st7" d="M108 109h30v-2h-30v2z"/><path class="st5" d="M192.7 120s3.6 9.6 4 10.8.4 3.3-.6 4.3-2.4 1.4-2.4 2.6c0 1.2.8 5.1 0 6.3s-3.9 2-5.4 2 2.1-9.9 1.5-14.2c-.5-4.3 2.9-11.8 2.9-11.8m-52.6-5s-2.2 3.7-2.9 5c-.7 1.4-2 3.1-2.9 4.1s-2.3 3.7-2.3 4.5c0 .8.8.4 2.1 0 .7-.2 6.3-1.1 7.7-1.2 1-.2-1.7-12.4-1.7-12.4"/><path class="st10" d="M140 67s2 23.5 2.7 26.8c.7 3.2 0 8.3-.5 9.2"/><path class="st8" d="M195.3 56.7s4 5.8 5.7 10.7c1.7 4.8 1 12.2.2 17.5-1.1 7.5-.9 14.7-.4 17.1.4 1.6-1.4 6.6-3.6 6.9-2.7.4-41-.9-49.5-3.3-3-.9-4.2-3-3.6-4 .6-1 2.2-3.3 3.9-3.6 2.2-.4 10.1 1 13.1.4 2.2-.4 15.8-2.6 19.9-2.8 4-.2 5-.2 5-.2s-1.8-9.9-2.9-16.5c-1.1-6.7-.6-15.3.2-20.2.6-4.9 7-4.3 12-2"/><path class="st8" d="M129.4 96s-5.3 2.3-6.2 3.3c-.9 1-4.4 4.8-4.2 5.6.2.8 3.4-1.3 4.4-1.9.9-.6 2.5-1 3-1s-2.3 1.7-3 2.9c-.8 1.2-.2 2.5.9 1.9s2.8-2.3 3.8-2.5 2.1 1.2 5.7 1.9c3.6.6 10.4-.2 11.7-.8 1.3-.6 1.7 1 5.9-1.7s-.6-5.8-3.8-6-6.6.4-9.5.2c-2.8-.2-7.4-1.7-8.7-1.9"/><path class="st9" d="M177 53s10.6.5 11.9.7c1.3.2 4.7.3 6.5 1.4 1.2.8 2.3 2.1 3.5 4.9 1.2 2.8 3.1 8.2 3.4 12.8.4 4.6 1.3 5.4 0 6.5s-3.8 2.7-6.8 2.7c-3.1 0-7.6.3-9.4-.1-1.8-.4-1.7-.1-3.2-1.1C181.3 79.7 177 53 177 53"/><path class="st5" d="M149 52.5s-6.9-.8-7.4-.5-3.4 4.2-2.4 5.7c1 1.6 9.8-5.2 9.8-5.2"/><path class="st8" d="M148.8 59.1c1.5 1.8 4.3 2.6 6.5 2.8 3 .4 5.9-.4 7.6-1.6 2.2-1.6 3.9-4.3 4.1-6.9.2-2.7-.1-8.1-.1-10.2 0-2.2-.1-10.3-1.3-11.8s-3.6 2-5.2 1.7c-1.6-.3-4.2-.7-6.3.1-2 .8-4.7 2.5-5.3 3.8-.7 1.3-1.4 2.8-1.6 4.6-.2 1.8.4 12.2.4 12.8 0 4 1.2 4.7 1.2 4.7"/><path class="st0" d="M162.3 33.6s1.3-.8 1.6-.5 2.1-.3 2.1.6c-.1.9-.8 9.8-3.3 12.7s-5.2 4.9-8.9 5.5c-2.5.4-4.7-.5-6.4-1.8-.9-.8-1.6-2.9-1.4-5.2.2-2.4.4-4 2-5.7 1.6-1.8 3.5-3.6 5.8-4.1 2.4-.7 6.5-3.1 8.5-1.5"/><path class="st10" d="M196.7 113s.5 3.7.2 6.4-1.2 7.3-1 8.3c.2.7 1.4 4.7.9 6-.7 1.8-2.2 2.1-2.5 3.2-.3 1.1.2 5.2-.1 6.4s-4.3 3.2-5.3 2.5.9-5.2.4-7.3-2-6.6-4.4-8.7c-1.7-1.5-2.9-2-6.9-2.4-4.1-.4-9.4 1-10.9 1.2s-5.3.6-7.6.2c-2.3-.5-9-1.7-12-2-3-.2-6.2.2-8.8.5-2.7.2-6.8 2.1-6.5.7.3-1.4 1.4-3 3.3-5.5s2.9-3.1 3.5-5.7.3-3.4 1.4-3.4 56.3-.4 56.3-.4z"/><path class="st10" d="M180 126s3.7.4 5.4 2.1c1.8 1.7 4.2 4.2 4.6 6.9"/><path d="M152 134s-9.6 17.7-11 20" fill="none" stroke="#0595db" stroke-width=".612"/><path class="st8" d="M166.8 11.3c-1.3-3.4-5.2-6.3-7.2-7.4-1.2-.7-3.1-1-5.4-.8-2.6-.1-6.1.4-8.4 1.1-3.2.9-6.7 4.8-7.6 9.6-.9 5.1.8 13 1.6 16.8s3.5 13.3 4.5 15.7c1 2.5 1.6 3.2 3 3.5 1.4.4 3.5.2 4.2.1 3-.6 5.5-1.4 7.2-2.7 1-.7 1.9-1.4 2.7-2.2l3.6-5.8c2-5.8 4.7-9.1 4.9-13.2.3-4.1-1.7-11.3-3.1-14.7"/><path class="st12" d="M149 24.2s1.3-.3 2.5-.1c1.2.2 2.9 1.3 3.5 1.9m-16 0c.8-.9 2.3-1.8 3-2"/><path class="st6" d="M159.6 9.7s3.6.4 6.3-3.3c.5-.8-.4-3.9-2.4-5.3-1.7-1.2-4.2-1.4-7.4-.8-2.7.5-5.7.4-9.9 1.6-3.6 1-6.4 2.7-9.3 4.2-4.1 2.1-5 5.5-5.5 7.4-.1.4 2.6-3.1 3.4-3.4.4-.2-2.5 2.4-3.3 5-.8 2.7-.5 9.9.1 8.6 1.1-2.5 3-2.4 5.4-4.1 2.2-1.5 4.2-2.5 4.6-3.4.6-1.2-3.6 5.3-1.7 4.4 2.1-1 2.6-1.2 4-1.9 3.2-1.3 15.7-9 15.7-9"/><path class="st6" d="M159.3 5.7s-2.3 1.9-2.3 5 1.2 4.3 1.2 4.3-.2-2 .1-2.6c.3-.7 3-3.5 4-4.2s2.3-2.9 1.5-4.6-1.7-2.8-2.6-2.5c-1 .2-1.9 4.6-1.9 4.6"/><path class="st6" d="M159.6 7.6s3 8.6 3.1 9.9.1 4.2.1 6-.2 2.7-.1 3.4c.1.7.2 1.9.8 2.2.5.3.7-.6 1-1.5s.1-3.4 0-4.4.7-1.9.9-2.2c.2-.4 1.1-1.9 1.9-1 .7.9 1.4 3.3 1.1 5.3-.3 2-.8 3.3-1.4 5.6-.3 1.2-1 3-1.9 4-.8.9-.4 4.5-.3 5.1.1.6 1-2.6 1.3-3.1s1.3-1.6 2.5-7.3-.2-9.7-.6-11.1c-.4-1.4-1.3-4.2-1.6-5.8s.1-3.7-.7-6.5-2.9-4.8-6.2-3.9c-3.4.9.1 5.3.1 5.3"/><path class="st13" d="M168 23.5s-.1-2.2-.6-2.4c-.5-.2-1.3.2-1.4 1.7-.1 1.5.5 3.4.2 4.7s.5-1.5.8-1.2c.3.2.7.8.4 1.8"/><path class="st6" d="M152 28.4c.1.8 0 1.5-.3 1.6s-.5-.5-.6-1.4c-.1-.8 0-1.5.3-1.6.2-.1.5.5.6 1.4m-11 0c.1.8 0 1.5-.3 1.6s-.5-.5-.6-1.4c-.1-.8 0-1.5.3-1.6.2-.1.5.5.6 1.4"/><path class="st12" d="M155 39s-.7 1.8-2.9 2.8c-2.3 1-4.9 1.3-6.1 1.1"/><path class="st13" d="M145.5 28c0 .1.1 2.4.1 3.8 0 1.5-.6 3.7-.6 4.3s.4 1.7 1.1 1.8c.6.1 2.3-.1 2.9-.6"/><path class="st6" d="M136 16s.3 3.8.8 5 2.2 3 2.2 3-.8-5.6-1-6.8c-.2-1.2-2-1.2-2-1.2"/><path class="st10" d="M167 52s13.6.9 15.3 1.1c1.7.2 7.2.5 9.3.8s3.9.9 4.5 1.7 3.4 5.7 4.2 8.3c.8 2.7 2.2 10.5 2.2 11.6 0 1.1.5 2.4.5 2.8-.1.4-2.1 2.1-3.5 2.8-1.4.6-4.2 1.1-6.9 1.1s-6.6-.2-7.7-.5c-1.2-.3-2-.4-2.5-1.5s-1.3-5.9-1.2-10.8 4-10.4 4.8-11.3m-6 9.9s1.3 6.4 2 8m-35-23.5s-2.7-.4-6-.5"/><path class="st1" d="M1 115h155v-8H1v8z"/><path class="st7" d="M1 115h155v-8H1v8z"/><path class="st1" d="M243 107s-2.4 8-7.7 8H134.2l-.2-8h109z"/><path class="st7" d="M243 107s-2.4 8-7.7 8H134.2l-.2-8h109z"/><path d="M3.2 234H9v-61H3.2v61z" fill="none" stroke="#4d3251" stroke-width=".56"/><path class="st3" d="M140 234h7v-61h-7v61z"/><path class="st7" d="M140 234h7v-61h-7v61z"/><path class="st1" d="M223 233h7v-60h-7v60z"/><path class="st7" d="M223 234h7v-61h-7v61zM7 174v-59m136 59v-59m83 59v-59"/><path class="st1" d="M60 81h78V23H60v58z"/><path class="st15" d="M60 81h78V23H60v58z"/><path class="st1" d="M138 81h4V23h-4v58z"/><path class="st15" d="M138 81h4V23h-4v58z"/><path class="st1" d="M120 40l-43.2.1-1.8 2.3V62h42.7V42.4h-.1L120 40z"/><path class="st4" d="M120 40l-43.2.1-1.8 2.3V62h42.7V42.4h-.1L120 40z"/><path class="st1" d="M120 40v22h-2V42.6l2-2.6z"/><path class="st4" d="M120 40v22h-2V42.6l2-2.6z"/><path class="st1" d="M67 106.5s.6-2.5 2.4-2.5h45.3s4 1.4 4.3 2.5-52 0-52 0"/><path class="st15" d="M67 106.5s.6-2.5 2.4-2.5h45.3s4 1.4 4.3 2.5-52 0-52 0z"/><path class="st1" d="M86.9 52h16.8l1.2 51.8h-6.6s-6.9-7.8-13.6.2H78l8.9-52z"/><path class="st7" d="M86.9 52h16.8l1.2 51.8h-6.6s-6.9-7.8-13.6.2H78l8.9-52z"/><path class="st4" d="M103 54v48"/><path class="st7" d="M9 234h27v-86H9v86z"/><path class="st7" d="M37 234h32v-86H37v86zm-26-2h24v-83H11v83z"/><path class="st16" d="M24 200c0 1.1-.9 2-2 2s-2-.9-2-2 .9-2 2-2 2 .9 2 2z"/><path d="M23 200c0 .6-.4 1-1 1s-1-.4-1-1 .4-1 1-1 1 .4 1 1" fill="#78c056"/><path class="st16" d="M11 164h24m-24 12h24m-24 15h24"/><path class="st0" d="M3.5 176.6s2.5 4.1 5.1 4.1v-7.5H3.5v3.4zm136.8-3.3h6.4v4.7s-2.7 3.6-6.4.1v-4.8zm83 0h6.4v4.9s-1 3-6.4 2.9v-7.8zM1.3 111.4v3.3h132.6l-.1-3.7zM134.4 111l.1 3.7h101.4s3.2-.4 5.2-4.2c-4.3 0-106.7.5-106.7.5z"/></svg>