<?xml version="1.0" encoding="utf-8"?>
<!-- Generator: Adobe Illustrator 22.1.0, SVG Export Plug-In . SVG Version: 6.00 Build 0)  -->
<svg version="1.1" id="DESIGNED_BY_FREEPIK" xmlns="http://www.w3.org/2000/svg" xmlns:xlink="http://www.w3.org/1999/xlink"
	 x="0px" y="0px" viewBox="0 0 745.2 865.6" style="enable-background:new 0 0 745.2 865.6;" xml:space="preserve">
<style type="text/css">
	.st0{opacity:0.2;fill:#0B6EE8;}
	.st1{fill:#F7F5EF;}
	.st2{fill:#0B6EE8;}
	.st3{fill:#DD830B;}
	.st4{fill:#FF9600;}
	.st5{fill:#46AF8F;}
	.st6{fill:#5CC1A4;}
	.st7{fill:#F16D59;}
	.st8{fill:#2E2F80;}
	.st9{fill:#4E71B6;}
	.st10{opacity:0.5;fill:none;stroke:#3B62AD;stroke-width:2;stroke-linecap:round;stroke-miterlimit:10;}
	.st11{fill:#FFFFFF;}
	.st12{opacity:0.5;}
	.st13{opacity:0.25;fill:#0B6EE8;}
	.st14{fill:#FFFFFF;stroke:#FFFFFF;stroke-miterlimit:10;}
	.st15{fill:#242E63;}
	.st16{fill:#F7ABA5;}
	.st17{fill:#EEA2A2;}
	.st18{fill:#F79D96;}
	.st19{fill:#175CA3;}
	.st20{fill:#46738C;}
	.st21{fill:#209CC1;}
	.st22{fill:#676767;}
	.st23{fill:#E9F1EB;}
	.st24{fill:#90908F;}
</style>
<path id="XMLID_62_" class="st0" d="M619.1,438.8c-27.1-15.7-49.7-38.3-65.1-65.5c-38-67.6-122.8-114.6-221.3-114.6
	c-134,0-242.7,87.1-242.7,194.6c0,3.3,0.1,6.6,0.3,9.8c2.9,46.8-12.9,92.4-42.8,128.4c-13.4,16.1-20.9,34.5-20.9,54.1
	c0,62.3,76.5,112.7,170.9,112.7c32.3,0,62.5-5.9,88.2-16.2c38.9-15.5,81.7-17.5,121.6-4.7c25.4,8.1,53.1,12.6,82.2,12.6
	c120.7,0,218.6-77.2,218.6-172.4C708.2,520.7,673.2,470.2,619.1,438.8z"/>
<g>
	<path id="XMLID_330_" class="st1" d="M496.8,0H212.2c-16.1,0-29.1,11.8-29.1,26.3v616.1c0,14.6,13,26.3,29.1,26.3h284.6
		c16.1,0,29.1-11.8,29.1-26.3V26.3C525.9,11.8,512.9,0,496.8,0z"/>
	<path id="XMLID_329_" class="st2" d="M496.8,0H212.2c-16.1,0-29.1,13-29.1,29.1v29.5h342.8V29.2C525.9,13.1,512.9,0,496.8,0z"/>
	<path id="XMLID_328_" class="st2" d="M183.1,602.5v37.1c0,16.1,13,29.1,29.1,29.1h284.6c16.1,0,29.1-13,29.1-29.1v-37.1H183.1z"/>
</g>
<g id="XMLID_135_">
	<path id="XMLID_138_" class="st3" d="M217.6,782.4c0,0.3,0,0.5-0.1,0.8c0,0.1,0,0.1-0.1,0.2c-0.1,0.2-0.2,0.4-0.3,0.6
		c0,0,0,0.1-0.1,0.1c-0.1,0.2-0.3,0.5-0.5,0.7c0,0.1-0.1,0.1-0.1,0.2c-0.2,0.2-0.4,0.4-0.7,0.6c0,0-0.1,0.1-0.1,0.1
		c-0.3,0.2-0.6,0.5-0.9,0.7c-0.1,0.1-0.2,0.1-0.3,0.2c-0.3,0.2-0.6,0.3-0.9,0.5c-0.1,0.1-0.2,0.1-0.4,0.2c-0.3,0.2-0.7,0.3-1,0.5
		c-0.1,0.1-0.3,0.1-0.4,0.2c-0.5,0.2-1.1,0.4-1.7,0.6l-57.8,20c-0.5,0.2-1.2,0.3-1.7,0.5c-0.8,0.2-1.7,0.5-2.6,0.7
		c-1.1,0.2-2.2,0.5-3.4,0.6c-0.7,0.1-1.5,0.2-2.2,0.3c-0.9,0.1-1.8,0.2-2.7,0.3c-0.2,0-0.4,0-0.6,0c-1.5,0.1-3,0.2-4.5,0.2
		c0,0-0.1,0-0.1,0c-1.6,0-3.1,0-4.7-0.1c0,0,0,0-0.1,0c-1.6-0.1-3.1-0.2-4.6-0.4c0,0-0.1,0-0.1,0c-1.4-0.2-2.9-0.4-4.2-0.7
		c0,0-0.1,0-0.1,0c-1.4-0.3-2.7-0.7-3.9-1.1l-56.9-19.5c-0.3-0.1-0.6-0.2-0.9-0.3c-0.3-0.1-0.5-0.2-0.8-0.3
		c-0.3-0.1-0.5-0.2-0.7-0.3c-0.2-0.1-0.5-0.2-0.7-0.3c-0.2-0.1-0.4-0.2-0.6-0.3c-0.2-0.1-0.4-0.2-0.6-0.4c-0.2-0.1-0.3-0.2-0.5-0.4
		c-0.2-0.1-0.4-0.3-0.5-0.4c-0.2-0.1-0.3-0.3-0.4-0.4c-0.1-0.1-0.3-0.2-0.4-0.4c-0.1-0.2-0.2-0.3-0.4-0.5c-0.1-0.1-0.2-0.2-0.2-0.3
		c-0.1-0.1-0.1-0.3-0.2-0.4c-0.2-0.4-0.3-0.8-0.3-1.2l0.2,25.5c0,0.4,0.1,0.8,0.3,1.2c0.1,0.1,0.1,0.3,0.2,0.4
		c0.1,0.1,0.1,0.2,0.2,0.3c0.1,0.2,0.2,0.3,0.4,0.5c0.1,0.1,0.2,0.2,0.3,0.3c0.1,0.2,0.3,0.3,0.5,0.5c0.1,0.1,0.3,0.2,0.4,0.3
		c0.2,0.2,0.4,0.3,0.6,0.5c0.1,0.1,0.3,0.2,0.5,0.3c0.2,0.1,0.5,0.3,0.8,0.4c0.2,0.1,0.3,0.2,0.5,0.2c0.3,0.1,0.6,0.3,1,0.4
		c0.2,0.1,0.4,0.2,0.7,0.3c0.3,0.1,0.6,0.3,1,0.4c0,0,0,0,0,0l56.9,19.5c0.6,0.2,1.3,0.4,2,0.6c0.6,0.2,1.2,0.3,1.7,0.4
		c0,0,0.1,0,0.1,0c0,0,0.1,0,0.1,0c0.4,0.1,0.9,0.2,1.4,0.3c0.5,0.1,1,0.2,1.5,0.3c0.4,0.1,0.9,0.1,1.3,0.2c0,0,0.1,0,0.1,0
		c0,0,0.1,0,0.1,0c0.5,0.1,1,0.1,1.5,0.2c0.5,0.1,1,0.1,1.5,0.1c0.5,0,0.9,0.1,1.4,0.1c0,0,0,0,0.1,0c0,0,0,0,0.1,0
		c0.5,0,1,0.1,1.6,0.1c0.5,0,1.1,0,1.6,0c0.5,0,1,0,1.5,0c0,0,0.1,0,0.1,0c0,0,0.1,0,0.1,0c0.6,0,1.2,0,1.7,0c0.6,0,1.3,0,1.9-0.1
		c0.2,0,0.5,0,0.7-0.1c0.2,0,0.4,0,0.6,0c0.4,0,0.7,0,1.1-0.1c0.6-0.1,1.1-0.1,1.7-0.2c0.7-0.1,1.5-0.2,2.2-0.3c0.2,0,0.4,0,0.6-0.1
		c0.8-0.1,1.7-0.3,2.5-0.5c0.1,0,0.2-0.1,0.3-0.1c0.9-0.2,1.8-0.5,2.6-0.7c0.4-0.1,0.9-0.2,1.4-0.4c0.1,0,0.2-0.1,0.4-0.1l57.8-20
		c0.6-0.2,1.1-0.4,1.6-0.6c0,0,0,0,0.1,0c0.2-0.1,0.3-0.1,0.4-0.2c0.3-0.1,0.6-0.3,0.9-0.4c0.1,0,0.1-0.1,0.2-0.1
		c0.1-0.1,0.2-0.1,0.4-0.2c0.2-0.1,0.3-0.2,0.5-0.3c0.1-0.1,0.2-0.2,0.4-0.2c0.1-0.1,0.2-0.1,0.3-0.2c0.1,0,0.1-0.1,0.2-0.1
		c0.2-0.2,0.5-0.3,0.7-0.5c0,0,0,0,0,0c0,0,0.1-0.1,0.1-0.1c0.2-0.1,0.3-0.3,0.4-0.4c0.1-0.1,0.1-0.2,0.2-0.2c0-0.1,0.1-0.1,0.1-0.2
		c0,0,0.1-0.1,0.1-0.1c0.1-0.2,0.3-0.4,0.4-0.5c0,0,0,0,0-0.1c0,0,0-0.1,0.1-0.1c0.1-0.1,0.1-0.2,0.2-0.3c0-0.1,0.1-0.2,0.1-0.3
		c0-0.1,0-0.1,0.1-0.2c0,0,0-0.1,0-0.1c0-0.2,0.1-0.4,0.1-0.6c0,0,0,0,0,0L217.6,782.4z"/>
	<g id="XMLID_136_">
		<path id="XMLID_137_" class="st4" d="M210.4,776.5c9.7,3.3,9.6,8.8-0.3,12.2l-57.8,20c-9.9,3.4-25.7,3.5-35.5,0.2l-56.9-19.5
			c-9.7-3.3-9.6-8.8,0.2-12.2l57.8-20c9.9-3.4,25.8-3.5,35.5-0.2L210.4,776.5z"/>
	</g>
</g>
<g id="XMLID_131_">
	<path id="XMLID_134_" class="st5" d="M600.4,811.3c0,0.3,0,0.5-0.1,0.8c0,0.1,0,0.1-0.1,0.2c-0.1,0.2-0.2,0.4-0.3,0.6
		c0,0,0,0.1-0.1,0.1c-0.1,0.2-0.3,0.5-0.5,0.7c0,0.1-0.1,0.1-0.1,0.2c-0.2,0.2-0.4,0.4-0.7,0.6c0,0-0.1,0.1-0.1,0.1
		c-0.3,0.2-0.6,0.5-0.9,0.7c-0.1,0.1-0.2,0.1-0.3,0.2c-0.3,0.2-0.6,0.3-0.9,0.5c-0.1,0.1-0.2,0.1-0.4,0.2c-0.3,0.2-0.7,0.3-1,0.5
		c-0.1,0.1-0.3,0.1-0.4,0.2c-0.5,0.2-1.1,0.4-1.7,0.6l-57.8,20c-0.5,0.2-1.2,0.3-1.7,0.5c-0.8,0.2-1.7,0.5-2.6,0.7
		c-1.1,0.2-2.2,0.5-3.4,0.6c-0.7,0.1-1.5,0.2-2.2,0.3c-0.9,0.1-1.8,0.2-2.7,0.3c-0.2,0-0.4,0-0.6,0c-1.5,0.1-3,0.2-4.5,0.2
		c0,0-0.1,0-0.1,0c-1.6,0-3.1,0-4.7-0.1c0,0,0,0-0.1,0c-1.6-0.1-3.1-0.2-4.6-0.4c0,0-0.1,0-0.1,0c-1.4-0.2-2.9-0.4-4.2-0.7
		c0,0-0.1,0-0.1,0c-1.4-0.3-2.7-0.7-3.9-1.1l-56.9-19.5c-0.3-0.1-0.6-0.2-0.9-0.3c-0.3-0.1-0.5-0.2-0.8-0.3
		c-0.3-0.1-0.5-0.2-0.7-0.3c-0.2-0.1-0.5-0.2-0.7-0.3c-0.2-0.1-0.4-0.2-0.6-0.3c-0.2-0.1-0.4-0.2-0.6-0.4c-0.2-0.1-0.3-0.2-0.5-0.4
		c-0.2-0.1-0.4-0.3-0.5-0.4c-0.2-0.1-0.3-0.3-0.4-0.4c-0.1-0.1-0.3-0.2-0.4-0.4c-0.1-0.2-0.2-0.3-0.4-0.5c-0.1-0.1-0.2-0.2-0.2-0.3
		c-0.1-0.1-0.1-0.3-0.2-0.4c-0.2-0.4-0.3-0.8-0.3-1.2l0.2,25.5c0,0.4,0.1,0.8,0.3,1.2c0.1,0.1,0.1,0.3,0.2,0.4
		c0.1,0.1,0.1,0.2,0.2,0.3c0.1,0.2,0.2,0.3,0.4,0.5c0.1,0.1,0.2,0.2,0.3,0.3c0.1,0.2,0.3,0.3,0.5,0.5c0.1,0.1,0.3,0.2,0.4,0.3
		c0.2,0.2,0.4,0.3,0.6,0.5c0.1,0.1,0.3,0.2,0.5,0.3c0.2,0.1,0.5,0.3,0.8,0.4c0.2,0.1,0.3,0.2,0.5,0.2c0.3,0.1,0.6,0.3,1,0.4
		c0.2,0.1,0.4,0.2,0.7,0.3c0.3,0.1,0.6,0.3,1,0.4c0,0,0,0,0,0l56.9,19.5c0.6,0.2,1.3,0.4,2,0.6c0.6,0.2,1.2,0.3,1.7,0.4
		c0,0,0.1,0,0.1,0c0,0,0.1,0,0.1,0c0.4,0.1,0.9,0.2,1.4,0.3c0.5,0.1,1,0.2,1.5,0.3c0.4,0.1,0.9,0.1,1.3,0.2c0,0,0.1,0,0.1,0
		c0,0,0.1,0,0.1,0c0.5,0.1,1,0.1,1.5,0.2c0.5,0.1,1,0.1,1.5,0.1c0.5,0,0.9,0.1,1.4,0.1c0,0,0,0,0.1,0c0,0,0,0,0.1,0
		c0.5,0,1,0.1,1.6,0.1c0.5,0,1.1,0,1.6,0c0.5,0,1,0,1.5,0c0,0,0.1,0,0.1,0c0,0,0.1,0,0.1,0c0.6,0,1.2,0,1.7,0c0.6,0,1.3,0,1.9-0.1
		c0.2,0,0.5,0,0.7-0.1c0.2,0,0.4,0,0.6,0c0.4,0,0.7,0,1.1-0.1c0.6-0.1,1.1-0.1,1.7-0.2c0.7-0.1,1.5-0.2,2.2-0.3c0.2,0,0.4,0,0.6-0.1
		c0.8-0.1,1.7-0.3,2.5-0.5c0.1,0,0.2-0.1,0.3-0.1c0.9-0.2,1.8-0.5,2.6-0.7c0.4-0.1,0.9-0.2,1.4-0.4c0.1,0,0.2-0.1,0.4-0.1l57.8-20
		c0.6-0.2,1.1-0.4,1.6-0.6c0,0,0,0,0.1,0c0.2-0.1,0.3-0.1,0.4-0.2c0.3-0.1,0.6-0.3,0.9-0.4c0.1,0,0.1-0.1,0.2-0.1
		c0.1-0.1,0.2-0.1,0.4-0.2c0.2-0.1,0.3-0.2,0.5-0.3c0.1-0.1,0.2-0.2,0.4-0.2c0.1-0.1,0.2-0.1,0.3-0.2c0.1,0,0.1-0.1,0.2-0.1
		c0.2-0.2,0.5-0.3,0.7-0.5c0,0,0,0,0,0c0,0,0.1-0.1,0.1-0.1c0.2-0.1,0.3-0.3,0.4-0.4c0.1-0.1,0.1-0.2,0.2-0.2c0-0.1,0.1-0.1,0.1-0.2
		c0,0,0.1-0.1,0.1-0.1c0.1-0.2,0.3-0.4,0.4-0.5c0,0,0,0,0-0.1c0,0,0-0.1,0.1-0.1c0.1-0.1,0.1-0.2,0.2-0.3c0-0.1,0.1-0.2,0.1-0.3
		c0-0.1,0-0.1,0.1-0.2c0,0,0-0.1,0-0.1c0-0.2,0.1-0.4,0.1-0.6c0,0,0,0,0,0L600.4,811.3z"/>
	<g id="XMLID_132_">
		<path id="XMLID_133_" class="st6" d="M593.2,805.4c9.7,3.3,9.6,8.8-0.3,12.2l-57.8,20c-9.9,3.4-25.7,3.5-35.5,0.2l-56.9-19.5
			c-9.7-3.3-9.6-8.8,0.2-12.2l57.8-20c9.9-3.4,25.8-3.5,35.5-0.2L593.2,805.4z"/>
	</g>
</g>
<path id="XMLID_151_" class="st2" d="M652.3,239.3h-65.5c-11.2,0-20.3,9.1-20.3,20.3v65.5c0,11.2,9.1,20.3,20.3,20.3h65.5
	c11.2,0,20.3-9.1,20.3-20.3v-65.5C672.6,248.4,663.5,239.3,652.3,239.3z"/>
<polygon id="XMLID_148_" class="st1" points="582.5,577.6 571.1,460.6 556.5,335.6 567.8,333.9 593.8,452.5 634.4,455.8 
	676.7,335.6 688,337.2 657.2,465.5 658.8,574.3 "/>
<path id="XMLID_146_" class="st7" d="M688,332.3c0,5.4-4.4,9.7-9.7,9.7c-5.4,0-9.7-4.4-9.7-9.7s4.4-9.7,9.7-9.7
	C683.7,322.6,688,326.9,688,332.3z"/>
<path id="XMLID_145_" class="st7" d="M639.8,417c0,13.7-11.1,24.8-24.8,24.8c-13.7,0-24.8-11.1-24.8-24.8
	c0-13.7,11.1-24.8,24.8-24.8C628.7,392.2,639.8,403.3,639.8,417z"/>
<path id="XMLID_144_" class="st8" d="M639.8,420.9c0,13.7-11.1,24.8-24.8,24.8c-13.7,0-24.8-11.1-24.8-24.8
	c0-13.7,11.1-24.8,24.8-24.8C628.7,396.1,639.8,407.2,639.8,420.9z"/>
<polygon id="XMLID_143_" class="st2" points="658.8,574.3 647.5,753.7 635.1,753.7 624.6,575.8 613.5,576.3 606.7,758.1 
	597.1,757.9 582.5,577.6 580.3,555.4 658.5,556.4 "/>
<polygon id="XMLID_142_" class="st9" points="647.5,753.7 674.8,756.7 673.8,761 633.9,761 635.1,753.7 "/>
<polygon id="XMLID_141_" class="st9" points="606.7,758.1 606.7,763.2 569.2,764.6 569.2,759.9 597.1,757.9 "/>
<line id="XMLID_140_" class="st10" x1="525.9" y1="763.6" x2="744.2" y2="763.6"/>
<g>
	<path class="st11" d="M644.4,296.1h-49.6c-1.2,0-2.2-1.7-2.2-3.8c0-2.1,1-3.8,2.2-3.8h49.6c1.2,0,2.2,1.7,2.2,3.8
		C646.5,294.4,645.6,296.1,644.4,296.1z"/>
	<path class="st11" d="M644.4,278.3h-49.6c-1.2,0-2.2-1.7-2.2-3.8c0-2.1,1-3.8,2.2-3.8h49.6c1.2,0,2.2,1.7,2.2,3.8
		C646.5,276.7,645.6,278.3,644.4,278.3z"/>
	<path class="st11" d="M644.4,313.8h-49.6c-1.2,0-2.2-1.7-2.2-3.8c0-2.1,1-3.8,2.2-3.8h49.6c1.2,0,2.2,1.7,2.2,3.8
		C646.5,312.1,645.6,313.8,644.4,313.8z"/>
</g>
<g id="OBJECTS">
	<g class="st12">
		<g>
			<path class="st13" d="M504.1,567.7H211.3c-2.6,0-4.7-2.2-4.7-4.9v-46.5l22.4-23.3h275.2c2.6,0,4.7,2.2,4.7,4.9v64.8
				C508.8,565.5,506.7,567.7,504.1,567.7z"/>
			<path class="st13" d="M224.2,516.1h-17.6l22.4-23.3v18.4C228.9,513.9,226.8,516.1,224.2,516.1z"/>
		</g>
		<rect x="203.9" y="127.7" class="st13" width="76.5" height="142.9"/>
		<rect x="387.6" y="360.8" class="st13" width="121.2" height="109.8"/>
		<rect x="434" y="127.7" class="st13" width="74.9" height="74.9"/>
		<rect x="290.8" y="87.3" class="st13" width="218" height="25.4"/>
		<rect x="292.2" y="127.7" class="st13" width="125.2" height="12.2"/>
		<rect x="292.2" y="159.1" class="st13" width="125.2" height="12.2"/>
		<rect x="292.2" y="190.4" class="st13" width="125.2" height="12.2"/>
		<rect x="292.2" y="221.8" class="st13" width="216.7" height="12.2"/>
		<rect x="292.2" y="253.1" class="st13" width="216.7" height="12.2"/>
		<g>
			
				<rect x="206.6" y="458.6" transform="matrix(-1 -1.224647e-16 1.224647e-16 -1 574.5256 930.2078)" class="st13" width="161.4" height="13"/>
			
				<rect x="206.6" y="426" transform="matrix(-1 -1.224647e-16 1.224647e-16 -1 574.5256 864.9813)" class="st13" width="161.4" height="13"/>
			
				<rect x="206.6" y="393.4" transform="matrix(-1 -1.224647e-16 1.224647e-16 -1 574.5256 799.7542)" class="st13" width="161.4" height="13"/>
			
				<rect x="206.6" y="360.8" transform="matrix(-1 -1.224647e-16 1.224647e-16 -1 574.5256 734.5271)" class="st13" width="161.4" height="13"/>
			
				<rect x="206.6" y="328.1" transform="matrix(-1 -1.224647e-16 1.224647e-16 -1 715.4161 669.3006)" class="st13" width="302.3" height="13"/>
			
				<rect x="206.6" y="295.5" transform="matrix(-1 -1.224647e-16 1.224647e-16 -1 715.4161 604.0735)" class="st13" width="302.3" height="13"/>
		</g>
	</g>
	<g>
		<path class="st14" d="M518,792.8c-23,0-41.7,8.1-41.7,18.1s18.7,18.1,41.7,18.1c23,0,41.7-8.1,41.7-18.1
			C559.7,800.9,541,792.8,518,792.8z M548.7,811.7h7.3c-0.9,8.5-16.6,15.4-36.3,15.8v-3.2c0-0.4-0.8-0.8-1.8-0.8s-1.8,0.3-1.8,0.8
			v3.2c-19.6-0.4-35.3-7.2-36.3-15.8h7.3c1,0,1.8-0.3,1.8-0.8s-0.8-0.8-1.8-0.8h-7.3c0.9-8.5,16.6-15.4,36.3-15.8v3.2
			c0,0.4,0.8,0.8,1.8,0.8s1.8-0.3,1.8-0.8v-3.2c19.6,0.4,35.3,7.2,36.3,15.8h-7.3c-1,0-1.8,0.3-1.8,0.8S547.7,811.7,548.7,811.7
			L548.7,811.7z"/>
		<path class="st14" d="M519.8,810.6v-7.9c0-0.4-0.8-0.8-1.8-0.8s-1.8,0.3-1.8,0.8v8.2c0,0.2,0.2,0.4,0.5,0.5l17.6,7.8
			c0.7,0.3,1.8,0.3,2.5,0c0.7-0.3,0.7-0.8,0-1.1l0,0L519.8,810.6z"/>
	</g>
</g>
<g id="XMLID_427_">
	<g id="XMLID_686_">
		<g id="XMLID_688_">
			<g id="XMLID_741_">
				<path class="st15" d="M356.1,464.9c-10.1-17.9-42.3-28.6-42.3-0.6c-0.6,11.3,0.6,14.3-7.7,21.5c-6.6,5.4-14.9,8.9-14.3,19.1
					c1.2,9.5,11.9,11.9,13.1,20.9c1.8,9.5-8.9,13.7-10.1,22.1c-0.6,7.7,6,14.9,8.3,22.6c3,11.9,6.6,23.2,21.5,19.7l60.8-12.5
					c14.9,6,22.6-8.9,22.6-20.9c-0.6-10.7-2.4-14.3,4.2-23.8c6-9.5,13.1-14.9,7.7-27.4c-1.2-3.6-6-6.6-6.6-10.7
					c-0.6-4.8,3.6-7.7,4.2-11.9c1.8-13.1-7.2-17.9-18.5-20.9c-4.8-1.8-8.9-1.2-13.1-4.2c-3-2.4-2.4-7.2-6.6-8.9
					C368.1,443.5,357.9,457.8,356.1,464.9z"/>
			</g>
			<g id="XMLID_689_">
				<polygon id="XMLID_740_" class="st11" points="296,707.5 426,707.5 426,732.3 361,757.9 296,731.4 				"/>
				<g id="XMLID_724_">
					<polygon id="XMLID_739_" class="st4" points="421.6,562.8 421.6,562.8 458.6,553.6 499.1,483.5 508.8,494.9 473.5,577.7 
						420.8,598.1 420.2,727.8 302.9,725.6 301.3,694.6 301.3,694.6 263.6,674.9 260.2,663.4 296.2,563.8 					"/>
					<path id="XMLID_738_" class="st16" d="M371.8,564.4l-0.3-22.6l-26.3-1.3l0.3,24.3C345.5,564.8,358.5,583.3,371.8,564.4z"/>
					<polygon id="XMLID_737_" class="st17" points="345.5,557.2 371.7,551.9 371.4,541.8 345.2,540.5 					"/>
					<g id="XMLID_725_">
						<path id="XMLID_736_" class="st16" d="M392.3,499.7l-12.2,38.6L359.6,550l-22.4-11.2L325,502.2c0,0,23-2.7,33.1-13.5
							c0,0-7,9.5-26.8,15.6c0,0,23.2-1.3,33-15.2C364.2,489.1,375,498.8,392.3,499.7z"/>
						<path id="XMLID_735_" class="st16" d="M329.5,508.7c0,0-8.6-1.9-7.7,4.4c1.2,8,12.8,11.9,12.8,11.9L329.5,508.7z"/>
						<path id="XMLID_734_" class="st16" d="M386.7,508.7c0,0,8.6-1.9,7.7,4.4c-1.2,8-12.8,11.9-12.8,11.9L386.7,508.7z"/>
						<g id="XMLID_726_">
							<g>
								<g>
									<path class="st18" d="M363.4,525.3c0.3-0.2,0.6-0.4,0.9-0.6c-0.4-0.3-0.8-0.7-1.2-1c-0.3-0.2-0.5-0.4-0.8-0.7
										c-0.5-0.4-1-0.8-1.4-1.2c-0.9-0.7-1.6-1.2-2-1.4c0.3,0.4,0.9,1,1.7,1.8c0.4,0.4,0.9,0.8,1.3,1.3c0.2,0.2,0.5,0.5,0.8,0.7
										c0.1,0.1,0.3,0.2,0.4,0.4c0.1,0.1,0,0,0.1,0.1l0,0l0,0l0,0l-0.1,0.1c-2.7,1.8-4.9,3.4-5.7,4.2
										C358.4,528.5,360.7,527.1,363.4,525.3z"/>
								</g>
							</g>
						</g>
					</g>
				</g>
				<g id="XMLID_713_">
					<polygon id="XMLID_723_" class="st2" points="425.4,694.5 480.8,677.7 503.2,684 504.1,727.2 343.1,785 334.4,765.8 
						407.7,727.1 					"/>
					<g id="XMLID_715_">
						<g>
							<g>
								<path class="st19" d="M410.9,726.9c-21.8,10.9-40.3,20.4-47.3,24.2c7.2-3.3,25.9-12.4,47.7-23.3
									c21.8-10.9,40.3-20.4,47.3-24.2C451.4,706.9,432.8,716,410.9,726.9z"/>
							</g>
						</g>
					</g>
					<polygon id="XMLID_714_" class="st20" points="334.4,765.8 320.4,776.5 314.4,823.6 343.1,785 					"/>
				</g>
				<g id="XMLID_702_">
					<polygon id="XMLID_712_" class="st2" points="303.8,695.4 248.4,678.6 226,684.9 225.1,728.1 386.1,785.9 394.8,766.7 
						321.5,728 					"/>
					<g id="XMLID_704_">
						<g>
							<g>
								<path class="st19" d="M332.5,736c28.6,14.3,53,26.3,62.4,30.7c-9.1-4.9-33.3-17.2-61.9-31.5c-28.6-14.3-53-26.3-62.4-30.7
									C279.7,709.4,303.9,721.7,332.5,736z"/>
							</g>
						</g>
					</g>
					<polygon id="XMLID_703_" class="st20" points="394.8,766.7 408.8,777.4 414.8,824.5 386.1,785.9 					"/>
				</g>
				<path id="XMLID_701_" class="st16" d="M339.3,563.5c0,0,8.5,37.8,18.9,37.8c9.9,0,19.2-38.5,19.2-38.5L339.3,563.5z"/>
				<g id="XMLID_693_">
					<g>
						<g>
							<path class="st21" d="M307.8,616.6c-2.8,8.6-5,15.9-5.7,18.8c1.2-2.7,3.8-9.9,6.6-18.5c2.8-8.6,5-15.9,5.7-18.8
								C313.2,600.8,310.6,608,307.8,616.6z"/>
						</g>
					</g>
				</g>
				<g id="XMLID_690_">
					<polygon id="XMLID_692_" class="st22" points="425.4,727.8 292.9,727.8 279.4,637.3 429.5,635.8 					"/>
					<path id="XMLID_691_" class="st11" d="M368.1,678.6c0,6-4.9,11-11,11c-6.1,0-11-4.9-11-11c0-6,4.9-11,11-11
						C363.1,667.7,368.1,672.6,368.1,678.6z"/>
				</g>
			</g>
		</g>
		<path id="XMLID_687_" class="st16" d="M499.1,483.5c27.2-21.8,17.8-2.5,17.8-2.5s20.5,1.4,20.1,5.8c-0.5,6-28.2,7.8-28.2,7.8
			L499.1,483.5z"/>
	</g>
	<g id="XMLID_684_">
		<path id="XMLID_685_" class="st23" d="M17.7,534.1h202.7c9.8,0,17.7,7.9,17.7,17.7v89.3l41,19.2c3.4,3.3,1.1,9-3.6,9H17.7
			c-9.8,0-17.7-7.9-17.7-17.7l0-99.8C0,542,7.9,534.1,17.7,534.1z"/>
	</g>
	<g id="XMLID_484_">
		<g id="XMLID_626_">
			<path id="XMLID_683_" class="st24" d="M65,554.9H17.4c-1.9,0-3.4-1.1-3.4-2.4l0,0c0-1.3,1.5-2.4,3.4-2.4H65
				c1.9,0,3.4,1.1,3.4,2.4l0,0C68.4,553.9,66.9,554.9,65,554.9z"/>
			<path id="XMLID_682_" class="st24" d="M185.7,554.9H138c-1.9,0-3.4-1.1-3.4-2.4l0,0c0-1.3,1.5-2.4,3.4-2.4h47.7
				c1.9,0,3.4,1.1,3.4,2.4l0,0C189,553.9,187.5,554.9,185.7,554.9z"/>
			<path id="XMLID_681_" class="st24" d="M209.1,554.9h-10.9c-1.9,0-3.4-1.1-3.4-2.4l0,0c0-1.3,1.5-2.4,3.4-2.4h10.9
				c1.9,0,3.4,1.1,3.4,2.4l0,0C212.4,553.9,210.9,554.9,209.1,554.9z"/>
			<path id="XMLID_680_" class="st24" d="M125.1,554.9h-17.2c-1.9,0-3.4-1.1-3.4-2.4l0,0c0-1.3,1.5-2.4,3.4-2.4h17.2
				c1.9,0,3.4,1.1,3.4,2.4l0,0C128.5,553.9,126.9,554.9,125.1,554.9z"/>
			<path id="XMLID_679_" class="st24" d="M49.2,563.9H17.4c-1.9,0-3.4-1.1-3.4-2.4l0,0c0-1.3,1.5-2.4,3.4-2.4h31.9
				c1.9,0,3.4,1.1,3.4,2.4l0,0C52.6,562.8,51.1,563.9,49.2,563.9z"/>
			<path id="XMLID_678_" class="st24" d="M134.8,563.9H103c-1.9,0-3.4-1.1-3.4-2.4l0,0c0-1.3,1.5-2.4,3.4-2.4h31.9
				c1.9,0,3.4,1.1,3.4,2.4l0,0C138.2,562.8,136.7,563.9,134.8,563.9z"/>
			<path id="XMLID_677_" class="st24" d="M151.5,563.9h-5.8c-1.9,0-3.4-1.1-3.4-2.4l0,0c0-1.3,1.5-2.4,3.4-2.4h5.8
				c1.9,0,3.4,1.1,3.4,2.4l0,0C154.8,562.8,153.3,563.9,151.5,563.9z"/>
			<path id="XMLID_676_" class="st24" d="M70.7,563.9H60.4c-1.9,0-3.4-1.1-3.4-2.4l0,0c0-1.3,1.5-2.4,3.4-2.4h10.3
				c1.9,0,3.4,1.1,3.4,2.4l0,0C74,562.8,72.5,563.9,70.7,563.9z"/>
			<path id="XMLID_675_" class="st24" d="M91.9,563.9H81.6c-1.9,0-3.4-1.1-3.4-2.4l0,0c0-1.3,1.5-2.4,3.4-2.4h10.3
				c1.9,0,3.4,1.1,3.4,2.4l0,0C95.2,562.8,93.7,563.9,91.9,563.9z"/>
			<path id="XMLID_674_" class="st24" d="M49.2,572.8H17.4c-1.9,0-3.4-1.1-3.4-2.4l0,0c0-1.3,1.5-2.4,3.4-2.4h31.9
				c1.9,0,3.4,1.1,3.4,2.4l0,0C52.6,571.7,51.1,572.8,49.2,572.8z"/>
			<path id="XMLID_673_" class="st24" d="M70.7,572.8H60.4c-1.9,0-3.4-1.1-3.4-2.4l0,0c0-1.3,1.5-2.4,3.4-2.4h10.3
				c1.9,0,3.4,1.1,3.4,2.4l0,0C74,571.7,72.5,572.8,70.7,572.8z"/>
			<path id="XMLID_672_" class="st24" d="M91.9,572.8H81.6c-1.9,0-3.4-1.1-3.4-2.4l0,0c0-1.3,1.5-2.4,3.4-2.4h10.3
				c1.9,0,3.4,1.1,3.4,2.4l0,0C95.2,571.7,93.7,572.8,91.9,572.8z"/>
			<path id="XMLID_671_" class="st24" d="M149.2,572.8h-3.2c-1.9,0-3.4-1.1-3.4-2.4l0,0c0-1.3,1.5-2.4,3.4-2.4h3.2
				c1.9,0,3.4,1.1,3.4,2.4l0,0C152.5,571.7,151,572.8,149.2,572.8z"/>
			<path id="XMLID_670_" class="st24" d="M163.5,572.8h-3.2c-1.9,0-3.4-1.1-3.4-2.4l0,0c0-1.3,1.5-2.4,3.4-2.4h3.2
				c1.9,0,3.4,1.1,3.4,2.4l0,0C166.8,571.7,165.3,572.8,163.5,572.8z"/>
			<path id="XMLID_669_" class="st24" d="M177.8,572.8h-3.2c-1.9,0-3.4-1.1-3.4-2.4l0,0c0-1.3,1.5-2.4,3.4-2.4h3.2
				c1.9,0,3.4,1.1,3.4,2.4l0,0C181.1,571.7,179.6,572.8,177.8,572.8z"/>
			<path id="XMLID_668_" class="st24" d="M192.1,572.8h-3.2c-1.9,0-3.4-1.1-3.4-2.4l0,0c0-1.3,1.5-2.4,3.4-2.4h3.2
				c1.9,0,3.4,1.1,3.4,2.4l0,0C195.4,571.7,193.9,572.8,192.1,572.8z"/>
			<path id="XMLID_667_" class="st24" d="M34.3,581.7H17.4c-1.9,0-3.4-1.1-3.4-2.4l0,0c0-1.3,1.5-2.4,3.4-2.4h16.9
				c1.9,0,3.4,1.1,3.4,2.4l0,0C37.6,580.6,36.1,581.7,34.3,581.7z"/>
			<path id="XMLID_666_" class="st24" d="M86.6,581.7H69.7c-1.9,0-3.4-1.1-3.4-2.4l0,0c0-1.3,1.5-2.4,3.4-2.4h16.9
				c1.9,0,3.4,1.1,3.4,2.4l0,0C90,580.6,88.5,581.7,86.6,581.7z"/>
			<path id="XMLID_665_" class="st24" d="M96.8,581.7h-0.9c-1.9,0-3.4-1.1-3.4-2.4l0,0c0-1.3,1.5-2.4,3.4-2.4h0.9
				c1.9,0,3.4,1.1,3.4,2.4l0,0C100.1,580.6,98.6,581.7,96.8,581.7z"/>
			<path id="XMLID_664_" class="st24" d="M47.3,581.7h-3.7c-1.9,0-3.4-1.1-3.4-2.4l0,0c0-1.3,1.5-2.4,3.4-2.4h3.7
				c1.9,0,3.4,1.1,3.4,2.4l0,0C50.7,580.6,49.2,581.7,47.3,581.7z"/>
			<path id="XMLID_663_" class="st24" d="M60.3,581.7h-3.7c-1.9,0-3.4-1.1-3.4-2.4l0,0c0-1.3,1.5-2.4,3.4-2.4h3.7
				c1.9,0,3.4,1.1,3.4,2.4l0,0C63.7,580.6,62.2,581.7,60.3,581.7z"/>
			<path id="XMLID_662_" class="st24" d="M56.5,590.7H17.4c-1.9,0-3.4-1.1-3.4-2.4l0,0c0-1.3,1.5-2.4,3.4-2.4h39.1
				c1.9,0,3.4,1.1,3.4,2.4l0,0C59.8,589.6,58.3,590.7,56.5,590.7z"/>
			<path id="XMLID_661_" class="st24" d="M126.9,590.7H119c-1.9,0-3.4-1.1-3.4-2.4l0,0c0-1.3,1.5-2.4,3.4-2.4h7.9
				c1.9,0,3.4,1.1,3.4,2.4l0,0C130.2,589.6,128.7,590.7,126.9,590.7z"/>
			<path id="XMLID_660_" class="st24" d="M142.6,590.7h-4c-1.9,0-3.4-1.1-3.4-2.4l0,0c0-1.3,1.5-2.4,3.4-2.4h4
				c1.9,0,3.4,1.1,3.4,2.4l0,0C145.9,589.6,144.4,590.7,142.6,590.7z"/>
			<path id="XMLID_659_" class="st24" d="M158.2,590.7h-4c-1.9,0-3.4-1.1-3.4-2.4l0,0c0-1.3,1.5-2.4,3.4-2.4h4
				c1.9,0,3.4,1.1,3.4,2.4l0,0C161.5,589.6,160,590.7,158.2,590.7z"/>
			<path id="XMLID_658_" class="st24" d="M81.9,590.7H68.4c-1.9,0-3.4-1.1-3.4-2.4l0,0c0-1.3,1.5-2.4,3.4-2.4h13.5
				c1.9,0,3.4,1.1,3.4,2.4l0,0C85.2,589.6,83.7,590.7,81.9,590.7z"/>
			<path id="XMLID_657_" class="st24" d="M107,590.7H93.6c-1.9,0-3.4-1.1-3.4-2.4l0,0c0-1.3,1.5-2.4,3.4-2.4H107
				c1.9,0,3.4,1.1,3.4,2.4l0,0C110.4,589.6,108.9,590.7,107,590.7z"/>
			<path id="XMLID_656_" class="st24" d="M62,599.6H17.4c-1.9,0-3.4-1.1-3.4-2.4l0,0c0-1.3,1.5-2.4,3.4-2.4H62
				c1.9,0,3.4,1.1,3.4,2.4l0,0C65.4,598.5,63.9,599.6,62,599.6z"/>
			<path id="XMLID_655_" class="st24" d="M175.9,599.6h-44.6c-1.9,0-3.4-1.1-3.4-2.4l0,0c0-1.3,1.5-2.4,3.4-2.4h44.6
				c1.9,0,3.4,1.1,3.4,2.4l0,0C179.3,598.5,177.8,599.6,175.9,599.6z"/>
			<path id="XMLID_654_" class="st24" d="M198,599.6h-10c-1.9,0-3.4-1.1-3.4-2.4l0,0c0-1.3,1.5-2.4,3.4-2.4h10
				c1.9,0,3.4,1.1,3.4,2.4l0,0C201.4,598.5,199.9,599.6,198,599.6z"/>
			<path id="XMLID_653_" class="st24" d="M37.6,608.5H17.4c-1.9,0-3.4-1.1-3.4-2.4l0,0c0-1.3,1.5-2.4,3.4-2.4h20.2
				c1.9,0,3.4,1.1,3.4,2.4l0,0C41,607.4,39.4,608.5,37.6,608.5z"/>
			<path id="XMLID_652_" class="st24" d="M97.3,608.5H77.1c-1.9,0-3.4-1.1-3.4-2.4l0,0c0-1.3,1.5-2.4,3.4-2.4h20.2
				c1.9,0,3.4,1.1,3.4,2.4l0,0C100.7,607.4,99.2,608.5,97.3,608.5z"/>
			<path id="XMLID_651_" class="st24" d="M108.9,608.5h-2c-1.9,0-3.4-1.1-3.4-2.4l0,0c0-1.3,1.5-2.4,3.4-2.4h2
				c1.9,0,3.4,1.1,3.4,2.4l0,0C112.3,607.4,110.8,608.5,108.9,608.5z"/>
			<path id="XMLID_650_" class="st24" d="M52.5,608.5h-5.1c-1.9,0-3.4-1.1-3.4-2.4l0,0c0-1.3,1.5-2.4,3.4-2.4h5.1
				c1.9,0,3.4,1.1,3.4,2.4l0,0C55.9,607.4,54.4,608.5,52.5,608.5z"/>
			<path id="XMLID_649_" class="st24" d="M67.3,608.5h-5.1c-1.9,0-3.4-1.1-3.4-2.4l0,0c0-1.3,1.5-2.4,3.4-2.4h5.1
				c1.9,0,3.4,1.1,3.4,2.4l0,0C70.7,607.4,69.2,608.5,67.3,608.5z"/>
			<path id="XMLID_648_" class="st24" d="M42,617.4H17.4c-1.9,0-3.4-1.1-3.4-2.4l0,0c0-1.3,1.5-2.4,3.4-2.4H42
				c1.9,0,3.4,1.1,3.4,2.4l0,0C45.4,616.3,43.9,617.4,42,617.4z"/>
			<path id="XMLID_647_" class="st24" d="M111.6,617.4H86.9c-1.9,0-3.4-1.1-3.4-2.4l0,0c0-1.3,1.5-2.4,3.4-2.4h24.6
				c1.9,0,3.4,1.1,3.4,2.4l0,0C114.9,616.3,113.4,617.4,111.6,617.4z"/>
			<path id="XMLID_646_" class="st24" d="M125.1,617.4h-3.5c-1.9,0-3.4-1.1-3.4-2.4l0,0c0-1.3,1.5-2.4,3.4-2.4h3.5
				c1.9,0,3.4,1.1,3.4,2.4l0,0C128.5,616.3,126.9,617.4,125.1,617.4z"/>
			<path id="XMLID_645_" class="st24" d="M59.4,617.4h-7.1c-1.9,0-3.4-1.1-3.4-2.4l0,0c0-1.3,1.5-2.4,3.4-2.4h7.1
				c1.9,0,3.4,1.1,3.4,2.4l0,0C62.8,616.3,61.3,617.4,59.4,617.4z"/>
			<path id="XMLID_644_" class="st24" d="M76.7,617.4h-7.1c-1.9,0-3.4-1.1-3.4-2.4l0,0c0-1.3,1.5-2.4,3.4-2.4h7.1
				c1.9,0,3.4,1.1,3.4,2.4l0,0C80,616.3,78.5,617.4,76.7,617.4z"/>
			<path id="XMLID_643_" class="st24" d="M49.2,635.3H17.4c-1.9,0-3.4-1.1-3.4-2.4l0,0c0-1.3,1.5-2.4,3.4-2.4h31.9
				c1.9,0,3.4,1.1,3.4,2.4l0,0C52.6,634.2,51.1,635.3,49.2,635.3z"/>
			<path id="XMLID_642_" class="st24" d="M115.5,635.3h-1.2c-1.9,0-3.4-1.1-3.4-2.4l0,0c0-1.3,1.5-2.4,3.4-2.4h1.2
				c1.9,0,3.4,1.1,3.4,2.4l0,0C118.9,634.2,117.4,635.3,115.5,635.3z"/>
			<g id="XMLID_632_">
				<path id="XMLID_641_" class="st24" d="M95.2,554.9H78c-1.9,0-3.4-1.1-3.4-2.4l0,0c0-1.3,1.5-2.4,3.4-2.4h17.2
					c1.9,0,3.4,1.1,3.4,2.4l0,0C98.6,553.9,97.1,554.9,95.2,554.9z"/>
				<path id="XMLID_640_" class="st24" d="M106.2,572.8H103c-1.9,0-3.4-1.1-3.4-2.4l0,0c0-1.3,1.5-2.4,3.4-2.4h3.2
					c1.9,0,3.4,1.1,3.4,2.4l0,0C109.6,571.7,108.1,572.8,106.2,572.8z"/>
				<path id="XMLID_639_" class="st24" d="M120.5,572.8h-3.2c-1.9,0-3.4-1.1-3.4-2.4l0,0c0-1.3,1.5-2.4,3.4-2.4h3.2
					c1.9,0,3.4,1.1,3.4,2.4l0,0C123.9,571.7,122.4,572.8,120.5,572.8z"/>
				<path id="XMLID_638_" class="st24" d="M134.8,572.8h-3.2c-1.9,0-3.4-1.1-3.4-2.4l0,0c0-1.3,1.5-2.4,3.4-2.4h3.2
					c1.9,0,3.4,1.1,3.4,2.4l0,0C138.2,571.7,136.7,572.8,134.8,572.8z"/>
				<path id="XMLID_637_" class="st24" d="M90.5,599.6H74.6c-1.9,0-3.4-1.1-3.4-2.4l0,0c0-1.3,1.5-2.4,3.4-2.4h15.9
					c1.9,0,3.4,1.1,3.4,2.4l0,0C93.9,598.5,92.4,599.6,90.5,599.6z"/>
				<path id="XMLID_636_" class="st24" d="M118.7,599.6h-15.9c-1.9,0-3.4-1.1-3.4-2.4l0,0c0-1.3,1.5-2.4,3.4-2.4h15.9
					c1.9,0,3.4,1.1,3.4,2.4l0,0C122.1,598.5,120.6,599.6,118.7,599.6z"/>
				<path id="XMLID_635_" class="st24" d="M105,635.3H87.3c-1.9,0-3.4-1.1-3.4-2.4l0,0c0-1.3,1.5-2.4,3.4-2.4H105
					c1.9,0,3.4,1.1,3.4,2.4l0,0C108.4,634.2,106.9,635.3,105,635.3z"/>
				<path id="XMLID_634_" class="st24" d="M64.4,635.3h-4c-1.9,0-3.4-1.1-3.4-2.4l0,0c0-1.3,1.5-2.4,3.4-2.4h4
					c1.9,0,3.4,1.1,3.4,2.4l0,0C67.8,634.2,66.3,635.3,64.4,635.3z"/>
				<path id="XMLID_633_" class="st24" d="M77.8,635.3h-4c-1.9,0-3.4-1.1-3.4-2.4l0,0c0-1.3,1.5-2.4,3.4-2.4h4
					c1.9,0,3.4,1.1,3.4,2.4l0,0C81.2,634.2,79.7,635.3,77.8,635.3z"/>
			</g>
			<path id="XMLID_631_" class="st24" d="M49.2,644.2H17.4c-1.9,0-3.4-1.1-3.4-2.4l0,0c0-1.3,1.5-2.4,3.4-2.4h31.9
				c1.9,0,3.4,1.1,3.4,2.4l0,0C52.6,643.1,51.1,644.2,49.2,644.2z"/>
			<path id="XMLID_630_" class="st24" d="M134.8,644.2H103c-1.9,0-3.4-1.1-3.4-2.4l0,0c0-1.3,1.5-2.4,3.4-2.4h31.9
				c1.9,0,3.4,1.1,3.4,2.4l0,0C138.2,643.1,136.7,644.2,134.8,644.2z"/>
			<path id="XMLID_629_" class="st24" d="M151.5,644.2h-5.8c-1.9,0-3.4-1.1-3.4-2.4l0,0c0-1.3,1.5-2.4,3.4-2.4h5.8
				c1.9,0,3.4,1.1,3.4,2.4l0,0C154.8,643.1,153.3,644.2,151.5,644.2z"/>
			<path id="XMLID_628_" class="st24" d="M70.7,644.2H60.4c-1.9,0-3.4-1.1-3.4-2.4l0,0c0-1.3,1.5-2.4,3.4-2.4h10.3
				c1.9,0,3.4,1.1,3.4,2.4l0,0C74,643.1,72.5,644.2,70.7,644.2z"/>
			<path id="XMLID_627_" class="st24" d="M91.9,644.2H81.6c-1.9,0-3.4-1.1-3.4-2.4l0,0c0-1.3,1.5-2.4,3.4-2.4h10.3
				c1.9,0,3.4,1.1,3.4,2.4l0,0C95.2,643.1,93.7,644.2,91.9,644.2z"/>
		</g>
		<g id="XMLID_485_">
			<path id="XMLID_574_" class="st24" d="M178.5,632v-3l8.5-3l-8.5-3v-3l12.3,4.5v2.9L178.5,632z"/>
			<path id="XMLID_571_" class="st24" d="M149.5,627.4v-2.9l12.3-4.5v3l-8.5,3l8.5,3v3L149.5,627.4z"/>
			<path id="XMLID_486_" class="st24" d="M173.3,616.9h2.6l-7.5,19h-2.6L173.3,616.9z"/>
		</g>
	</g>
</g>
<path class="st11" d="M149.6,779.4c-3.2-0.8-6.6-1.5-10-2.1c-2-0.4-3.8-0.8-5.5-1.4c-3.3-1.2-2.6-3.2,1.2-4c1.1-0.2,2.2-0.3,3.4-0.3
	c4.4-0.1,8.6,0.3,12.6,1.2c2,0.5,2.6,0.3,3.3-0.7c0.7-1,1.3-2.1,2-3.1c0.4-0.7-0.1-1.2-1.5-1.5c-2.6-0.5-5.2-0.9-7.9-1.1
	c-3.6-0.3-3.6-0.3-3.6-2c0-2.4,0-2.4-5.1-2.4c-0.7,0-1.5,0-2.2,0c-2.4,0-2.8,0.2-2.9,1.4c0,0.5,0,1,0,1.5c0,1.5,0,1.5-3.1,2
	c-7.4,1.3-12,3.7-12.5,7.5c-0.4,3.4,3.3,5.7,9.2,7.3c3.6,1,7.6,1.6,11.5,2.4c1.5,0.3,2.9,0.7,4.2,1.2c3.7,1.4,3,3.8-1.4,4.7
	c-2.3,0.5-4.8,0.6-7.4,0.5c-3.9-0.2-7.7-0.7-11.2-1.6c-2.1-0.5-2.7-0.4-3.4,0.7c-0.6,0.9-1.1,1.8-1.7,2.8c-0.7,1.2-0.5,1.5,2.1,2.1
	c3.2,0.7,6.6,1.1,10.1,1.4c2.7,0.2,2.8,0.3,2.8,1.6c0,0.6,0,1.2,0,1.8c0,0.8,0.8,1.2,2.5,1.2c1.9,0,3.8,0,5.7,0
	c1.5,0,2.3-0.4,2.3-1.2c0-0.8,0.1-1.7,0-2.5c-0.1-0.8,0.7-1.3,2.4-1.5c4-0.5,7.3-1.5,9.9-3C162.5,788.1,159.8,782,149.6,779.4
	L149.6,779.4z M149.6,779.4"/>
<path id="XMLID_1_" class="st7" d="M572.5,330.4c0,5.4-4.4,9.7-9.7,9.7c-5.4,0-9.7-4.4-9.7-9.7c0-5.4,4.4-9.7,9.7-9.7
	C568.1,320.7,572.5,325.1,572.5,330.4z"/>
</svg>
