<svg height="512pt" viewBox="0 0 512.05184 512" width="512pt" xmlns="http://www.w3.org/2000/svg"><path d="m213.332031 51.226562v409.597657c0 23.554687-45.824219 42.667969-102.398437 42.667969-4.351563 0-8.617188-.085938-12.800782-.425782-50.515624-2.558594-89.597656-20.480468-89.597656-42.242187v-409.597657zm0 0" fill="#cad9fc"/><path d="m187.734375 51.226562v409.597657c0 21.761719-39.082031 39.683593-89.601563 42.242187-50.515624-2.558594-89.597656-20.480468-89.597656-42.242187v-409.597657zm0 0" fill="#e8edfc"/><path d="m213.332031 51.226562c0 23.550782-45.824219 42.667969-102.398437 42.667969-4.351563 0-8.617188-.085937-12.800782-.429687-50.515624-2.558594-89.597656-20.480469-89.597656-42.238282 0-21.761718 39.082032-39.679687 89.597656-42.242187 4.183594-.339844 8.449219-.425781 12.800782-.425781 56.574218 0 102.398437 19.117187 102.398437 42.667968zm0 0" fill="#cad9fc"/><path d="m187.734375 51.226562c0-23.328124-40.117187-42.242187-89.601563-42.242187-49.484374 0-89.597656 18.914063-89.597656 42.242187 0 23.328126 40.113282 42.238282 89.597656 42.238282 49.484376 0 89.601563-18.910156 89.601563-42.238282zm0 0" fill="#e8edfc"/><path d="m110.933594 153.625c9.425781 0 17.066406 7.640625 17.066406 17.066406v42.667969c0 9.425781-7.640625 17.066406-17.066406 17.066406-9.425782 0-17.066406-7.640625-17.066406-17.066406v-42.667969c0-9.425781 7.640624-17.066406 17.066406-17.066406zm0 0" fill="#e8edfc"/><path d="m503.464844 204.824219c-.003906 82.074219-64.527344 149.648437-146.515625 153.429687-23.039063 42.839844-70.996094 51.371094-100.351563 52.3125-3.457031.191406-6.6875-1.714844-8.199218-4.828125-1.511719-3.113281-1.003907-6.828125 1.285156-9.425781 1.453125-1.535156 2.816406-3.15625 4.097656-4.777344 11.273438-16.597656 16.429688-36.597656 14.59375-56.574218-5.878906-3.75-11.523438-7.851563-16.898438-12.289063-7.769531-6.460937-14.859374-13.695313-21.160156-21.589844-42.265625-52.542969-45.292968-126.515625-7.464844-182.339843 37.824219-55.824219 107.648438-80.429688 172.117188-60.652344 64.464844 19.777344 108.480469 79.304687 108.496094 146.734375zm0 0" fill="#e8edfc"/><path d="m486.398438 186.820312c-.003907 82.074219-64.527344 149.644532-146.515626 153.429688-19.625 36.4375-57.257812 48.042969-86.101562 51.285156 11.273438-16.597656 16.429688-36.597656 14.59375-56.574218-5.878906-3.75-11.523438-7.851563-16.898438-12.289063 0-1.964844-.085937-3.925781-.167968-5.71875-7.445313-4.675781-14.46875-9.984375-20.992188-15.871094-50.230468-62.3125-44.152344-152.761719 13.960938-207.792969 58.113281-55.03125 148.757812-56.179687 208.246094-2.640624 21.96875 27.234374 33.925781 61.183593 33.875 96.171874zm0 0" fill="#fff"/><path d="m98.132812 503.066406c4.183594.339844 8.449219.425782 12.800782.425782 4.554687 0 9.003906-.171876 13.398437-.410157-.199219 0-.402343 0-.597656 0-50.519531-2.574219-89.601563-20.496093-89.601563-42.257812v-409.597657c0-21.761718 39.082032-39.679687 89.601563-42.242187h.597656c-4.394531-.253906-8.84375-.425781-13.398437-.425781-4.351563 0-8.617188.085937-12.800782.425781-50.515624 2.5625-89.597656 20.480469-89.597656 42.242187v409.597657c0 21.761719 39.082032 39.683593 89.597656 42.242187zm0 0" fill="#fff"/><path d="m17.066406 51.226562v409.597657h-17.066406v-409.597657zm0 0" fill="#fff"/><g fill="#428dff"><path d="m8.535156 93.894531c4.710938 0 8.53125-3.824219 8.53125-8.535156v-34.132813h-17.066406v34.132813c0 4.710937 3.820312 8.535156 8.535156 8.535156zm0 0"/><path d="m0 460.824219h17.066406v-307.199219c0-4.710938-3.820312-8.53125-8.53125-8.53125-4.714844 0-8.535156 3.820312-8.535156 8.53125zm0 0"/><path d="m17.066406 119.492188c-.03125-2.257813-.917968-4.421876-2.472656-6.058594l-1.28125-1.023438c-.476562-.324218-.992188-.582031-1.535156-.769531-.484375-.246094-1.003906-.417969-1.539063-.511719-.5625-.09375-1.132812-.152344-1.703125-.167968-2.261718.03125-4.425781.914062-6.058594 2.472656-.773437.816406-1.382812 1.773437-1.792968 2.816406-1.289063 3.183594-.5859378 6.824219 1.792968 9.300781.8125.773438 1.769532 1.378907 2.8125 1.792969 1.027344.4375 2.128907.667969 3.246094.683594 2.257813-.035156 4.421875-.917969 6.058594-2.476563 1.554688-1.636719 2.441406-3.800781 2.472656-6.058593zm0 0"/><path d="m213.332031 143.042969c-4.710937 0-8.53125-3.820313-8.53125-8.53125v-83.285157c0-4.714843 3.820313-8.535156 8.53125-8.535156 4.714844 0 8.535157 3.820313 8.535157 8.535156v83.285157c0 2.261719-.898438 4.433593-2.5 6.035156-1.601563 1.597656-3.769532 2.496094-6.035157 2.496094zm0 0"/><path d="m213.332031 469.359375c-4.710937 0-8.53125-3.820313-8.53125-8.535156v-185.769531c0-4.710938 3.820313-8.53125 8.53125-8.53125 4.714844 0 8.535157 3.820312 8.535157 8.53125v185.769531c0 4.714843-3.820313 8.535156-8.535157 8.535156zm0 0"/><path d="m42.667969 349.894531c-1.117188-.015625-2.21875-.246093-3.242188-.683593-1.035156-.433594-1.988281-1.039063-2.816406-1.792969-1.558594-1.636719-2.441406-3.800781-2.476563-6.058594.015626-1.117187.246094-2.21875.683594-3.242187.433594-1.035157 1.039063-1.988282 1.792969-2.816407.828125-.753906 1.78125-1.359375 2.816406-1.792969 3.175781-1.335937 6.84375-.628906 9.300781 1.792969.75.828125 1.359376 1.78125 1.789063 2.816407.480469 1.011718.714844 2.121093.683594 3.242187.023437 2.269531-.867188 4.453125-2.472657 6.058594-1.605468 1.605469-3.789062 2.496093-6.058593 2.476562zm0 0"/><path d="m42.667969 384.027344c-1.117188-.015625-2.21875-.246094-3.242188-.683594-1.035156-.433594-1.988281-1.039062-2.816406-1.792969-1.558594-1.636719-2.441406-3.800781-2.476563-6.058593.015626-1.113282.246094-2.214844.683594-3.242188.433594-1.035156 1.039063-1.984375 1.792969-2.816406.828125-.753906 1.78125-1.359375 2.816406-1.792969 3.175781-1.335937 6.84375-.628906 9.300781 1.792969.75.832031 1.359376 1.78125 1.789063 2.816406.480469 1.011719.714844 2.125.683594 3.242188.023437 2.269531-.867188 4.453124-2.472657 6.058593-1.605468 1.605469-3.789062 2.5-6.058593 2.476563zm0 0"/><path d="m42.667969 418.160156c-1.117188-.015625-2.21875-.246094-3.242188-.683594-1.035156-.433593-1.988281-1.039062-2.816406-1.792968-1.558594-1.636719-2.441406-3.796875-2.476563-6.058594.015626-1.113281.246094-2.214844.683594-3.242188.433594-1.035156 1.039063-1.984374 1.792969-2.816406.828125-.753906 1.78125-1.359375 2.816406-1.792968 3.175781-1.335938 6.84375-.628907 9.300781 1.792968.75.832032 1.359376 1.78125 1.789063 2.816406.480469 1.011719.714844 2.125.683594 3.242188.023437 2.269531-.867188 4.453125-2.472657 6.058594-1.605468 1.605468-3.789062 2.5-6.058593 2.476562zm0 0"/><path d="m42.667969 452.292969c-1.117188-.015625-2.21875-.246094-3.242188-.683594-1.035156-.433594-1.988281-1.039063-2.816406-1.792969-1.558594-1.632812-2.441406-3.796875-2.476563-6.058594.015626-1.113281.246094-2.214843.683594-3.242187.433594-1.03125 1.039063-1.984375 1.792969-2.816406.828125-.75 1.78125-1.359375 2.816406-1.789063 3.175781-1.335937 6.84375-.628906 9.300781 1.789063.75.832031 1.359376 1.785156 1.789063 2.816406.480469 1.011719.714844 2.125.683594 3.242187.023437 2.273438-.867188 4.457032-2.472657 6.0625-1.605468 1.605469-3.789062 2.496094-6.058593 2.472657zm0 0"/><path d="m76.800781 358.425781c-1.117187-.011719-2.21875-.246093-3.242187-.683593-1.035156-.433594-1.988282-1.039063-2.816406-1.789063-1.558594-1.636719-2.441407-3.800781-2.476563-6.058594.015625-1.117187.246094-2.21875.683594-3.246093.777343-2.140626 2.464843-3.832032 4.609375-4.605469 3.175781-1.335938 6.847656-.628907 9.300781 1.789062.753906.832031 1.359375 1.785157 1.792969 2.816407.476562 1.015624.710937 2.125.679687 3.246093.023438 2.269531-.867187 4.453125-2.472656 6.058594s-3.789063 2.496094-6.058594 2.472656zm0 0"/><path d="m76.800781 392.558594c-1.117187-.011719-2.21875-.246094-3.242187-.683594-1.035156-.429688-1.988282-1.039062-2.816406-1.789062-1.558594-1.636719-2.441407-3.800782-2.476563-6.058594.015625-1.117188.246094-2.21875.683594-3.242188.777343-2.144531 2.464843-3.835937 4.609375-4.609375 3.175781-1.335937 6.847656-.628906 9.300781 1.792969.753906.828125 1.359375 1.78125 1.792969 2.816406.476562 1.011719.710937 2.121094.679687 3.242188.023438 2.269531-.867187 4.453125-2.472656 6.058594-1.605469 1.605468-3.789063 2.496093-6.058594 2.472656zm0 0"/><path d="m76.800781 426.691406c-1.117187-.011718-2.21875-.246094-3.242187-.679687-1.035156-.433594-1.988282-1.039063-2.816406-1.792969-1.558594-1.636719-2.441407-3.800781-2.476563-6.058594.015625-1.117187.246094-2.21875.683594-3.242187.777343-2.144531 2.464843-3.832031 4.609375-4.609375 3.175781-1.335938 6.847656-.628906 9.300781 1.792968.753906.828126 1.359375 1.78125 1.792969 2.816407.476562 1.011719.710937 2.121093.679687 3.242187.023438 2.269532-.867187 4.453125-2.472656 6.058594s-3.789063 2.496094-6.058594 2.472656zm0 0"/><path d="m76.800781 460.824219c-1.117187-.011719-2.21875-.242188-3.242187-.679688-1.035156-.433593-1.988282-1.039062-2.816406-1.792969-1.558594-1.636718-2.441407-3.800781-2.476563-6.058593.015625-1.117188.246094-2.21875.683594-3.242188.777343-2.144531 2.464843-3.832031 4.609375-4.609375 3.175781-1.335937 6.847656-.628906 9.300781 1.792969.753906.828125 1.359375 1.78125 1.792969 2.816406.476562 1.011719.710937 2.121094.679687 3.242188.023438 2.269531-.867187 4.453125-2.472656 6.058593-1.605469 1.605469-3.789063 2.496094-6.058594 2.472657zm0 0"/><path d="m110.933594 358.425781c-1.117188-.011719-2.21875-.246093-3.242188-.683593-1.035156-.433594-1.988281-1.039063-2.816406-1.789063-1.558594-1.636719-2.441406-3.800781-2.476562-6.058594.015624-1.117187.246093-2.21875.683593-3.246093.433594-1.03125 1.039063-1.984376 1.792969-2.816407.832031-.75 1.785156-1.359375 2.816406-1.796875 3.179688-1.335937 6.847656-.625 9.300782 1.796875.753906.832031 1.359374 1.785157 1.792968 2.816407.476563 1.015624.710938 2.125.679688 3.246093.023437 2.269531-.867188 4.453125-2.472656 6.058594-1.605469 1.605469-3.789063 2.496094-6.058594 2.472656zm0 0"/><path d="m110.933594 392.558594c-1.117188-.011719-2.21875-.246094-3.242188-.683594-1.035156-.429688-1.988281-1.039062-2.816406-1.789062-1.558594-1.636719-2.441406-3.800782-2.476562-6.058594.015624-1.117188.246093-2.21875.683593-3.242188.777344-2.144531 2.464844-3.835937 4.609375-4.609375 3.175782-1.335937 6.847656-.628906 9.300782 1.792969.753906.828125 1.359374 1.78125 1.792968 2.816406.476563 1.011719.710938 2.121094.679688 3.242188.023437 2.269531-.867188 4.453125-2.472656 6.058594-1.605469 1.605468-3.789063 2.496093-6.058594 2.472656zm0 0"/><path d="m110.933594 426.691406c-1.117188-.011718-2.21875-.246094-3.242188-.679687-1.035156-.433594-1.988281-1.039063-2.816406-1.792969-1.558594-1.636719-2.441406-3.800781-2.476562-6.058594.015624-1.117187.246093-2.21875.683593-3.242187.777344-2.144531 2.464844-3.832031 4.609375-4.609375 3.175782-1.335938 6.847656-.628906 9.300782 1.792968.753906.828126 1.359374 1.78125 1.792968 2.816407.476563 1.011719.710938 2.121093.679688 3.242187.023437 2.269532-.867188 4.453125-2.472656 6.058594-1.605469 1.605469-3.789063 2.496094-6.058594 2.472656zm0 0"/><path d="m110.933594 460.824219c-1.117188-.011719-2.21875-.242188-3.242188-.679688-1.035156-.433593-1.988281-1.039062-2.816406-1.792969-1.558594-1.636718-2.441406-3.800781-2.476562-6.058593.015624-1.117188.246093-2.21875.683593-3.242188.777344-2.144531 2.464844-3.832031 4.609375-4.609375 3.175782-1.335937 6.847656-.628906 9.300782 1.792969.753906.828125 1.359374 1.78125 1.792968 2.816406.476563 1.011719.710938 2.121094.679688 3.242188.023437 2.269531-.867188 4.453125-2.472656 6.058593-1.605469 1.605469-3.789063 2.496094-6.058594 2.472657zm0 0"/><path d="m145.066406 358.425781c-1.113281-.011719-2.214844-.246093-3.242187-.683593-1.035157-.433594-1.984375-1.039063-2.816407-1.789063-1.558593-1.636719-2.441406-3.800781-2.472656-6.058594.011719-1.117187.242188-2.21875.679688-3.246093.777344-2.140626 2.464844-3.832032 4.609375-4.605469 3.175781-1.335938 6.847656-.628907 9.300781 1.789062.753906.832031 1.359375 1.785157 1.792969 2.816407.476562 1.015624.710937 2.125.683593 3.246093.023438 2.269531-.871093 4.453125-2.476562 6.058594s-3.789062 2.496094-6.058594 2.472656zm0 0"/><path d="m145.066406 392.558594c-1.113281-.011719-2.214844-.246094-3.242187-.683594-1.035157-.429688-1.984375-1.039062-2.816407-1.789062-1.558593-1.636719-2.441406-3.800782-2.472656-6.058594.011719-1.117188.242188-2.21875.679688-3.242188.777344-2.144531 2.464844-3.835937 4.609375-4.609375 3.175781-1.335937 6.847656-.628906 9.300781 1.792969.753906.828125 1.359375 1.78125 1.792969 2.816406.476562 1.011719.710937 2.121094.683593 3.242188.023438 2.269531-.871093 4.453125-2.476562 6.058594-1.605469 1.605468-3.789062 2.496093-6.058594 2.472656zm0 0"/><path d="m145.066406 426.691406c-1.113281-.011718-2.214844-.246094-3.242187-.679687-1.035157-.433594-1.984375-1.039063-2.816407-1.792969-1.558593-1.636719-2.441406-3.800781-2.472656-6.058594.011719-1.117187.242188-2.21875.679688-3.242187.777344-2.144531 2.464844-3.832031 4.609375-4.609375 3.175781-1.335938 6.847656-.628906 9.300781 1.792968.753906.828126 1.359375 1.78125 1.792969 2.816407.476562 1.011719.710937 2.121093.683593 3.242187.023438 2.269532-.871093 4.453125-2.476562 6.058594s-3.789062 2.496094-6.058594 2.472656zm0 0"/><path d="m145.066406 460.824219c-1.113281-.011719-2.214844-.242188-3.242187-.679688-1.035157-.433593-1.984375-1.039062-2.816407-1.792969-1.558593-1.636718-2.441406-3.800781-2.472656-6.058593.011719-1.117188.242188-2.21875.679688-3.242188.777344-2.144531 2.464844-3.832031 4.609375-4.609375 3.175781-1.335937 6.847656-.628906 9.300781 1.792969.753906.828125 1.359375 1.78125 1.792969 2.816406.476562 1.011719.710937 2.121094.683593 3.242188.023438 2.269531-.871093 4.453125-2.476562 6.058593-1.605469 1.605469-3.789062 2.496094-6.058594 2.472657zm0 0"/><path d="m179.199219 349.894531c-1.113281-.015625-2.214844-.246093-3.242188-.683593-1.035156-.433594-1.984375-1.039063-2.816406-1.792969-1.558594-1.636719-2.441406-3.800781-2.472656-6.058594.011719-1.117187.242187-2.21875.679687-3.242187.777344-2.144532 2.464844-3.832032 4.609375-4.609376 3.179688-1.335937 6.847657-.628906 9.300781 1.792969.753907.828125 1.359376 1.78125 1.792969 2.816407.476563 1.011718.710938 2.121093.683594 3.242187.023437 2.269531-.871094 4.453125-2.476563 6.058594-1.605468 1.605469-3.789062 2.496093-6.058593 2.476562zm0 0"/><path d="m179.199219 384.027344c-1.113281-.015625-2.214844-.246094-3.242188-.683594-1.035156-.433594-1.984375-1.039062-2.816406-1.792969-1.558594-1.636719-2.441406-3.800781-2.472656-6.058593.011719-1.113282.242187-2.214844.679687-3.242188.777344-2.144531 2.464844-3.832031 4.609375-4.609375 3.179688-1.335937 6.847657-.628906 9.300781 1.792969.753907.832031 1.359376 1.78125 1.792969 2.816406.476563 1.011719.710938 2.125.683594 3.242188.023437 2.269531-.871094 4.453124-2.476563 6.058593-1.605468 1.605469-3.789062 2.5-6.058593 2.476563zm0 0"/><path d="m179.199219 418.160156c-1.113281-.015625-2.214844-.246094-3.242188-.683594-1.035156-.433593-1.984375-1.039062-2.816406-1.792968-1.558594-1.636719-2.441406-3.796875-2.472656-6.058594.011719-1.113281.242187-2.214844.679687-3.242188.777344-2.144531 2.464844-3.832031 4.609375-4.609374 3.179688-1.335938 6.847657-.628907 9.300781 1.792968.753907.832032 1.359376 1.78125 1.792969 2.816406.476563 1.011719.710938 2.125.683594 3.242188.023437 2.269531-.871094 4.453125-2.476563 6.058594-1.605468 1.605468-3.789062 2.5-6.058593 2.476562zm0 0"/><path d="m179.199219 452.292969c-1.113281-.015625-2.214844-.246094-3.242188-.683594-1.035156-.433594-1.984375-1.039063-2.816406-1.792969-1.558594-1.632812-2.441406-3.796875-2.472656-6.058594.011719-1.113281.242187-2.214843.679687-3.242187.777344-2.144531 2.464844-3.832031 4.609375-4.605469 3.179688-1.335937 6.847657-.628906 9.300781 1.789063.753907.832031 1.359376 1.785156 1.792969 2.816406.476563 1.011719.710938 2.125.683594 3.242187.023437 2.273438-.871094 4.457032-2.476563 6.0625-1.605468 1.605469-3.789062 2.496094-6.058593 2.472657zm0 0"/><path d="m110.933594 102.425781c-63.242188 0-110.933594-22.015625-110.933594-51.199219 0-29.183593 47.691406-51.1992182 110.933594-51.1992182 63.242187 0 110.933594 22.0156252 110.933594 51.1992182 0 29.183594-47.691407 51.199219-110.933594 51.199219zm0-85.332031c-53.761719 0-93.867188 18.019531-93.867188 34.132812 0 16.109376 40.105469 34.132813 93.867188 34.132813 53.757812 0 93.867187-18.023437 93.867187-34.132813 0-16.113281-40.109375-34.132812-93.867187-34.132812zm0 0"/><path d="m110.933594 512.027344c-63.242188 0-110.933594-22.015625-110.933594-51.203125 0-4.710938 3.820312-8.53125 8.535156-8.53125 4.710938 0 8.53125 3.820312 8.53125 8.53125 0 16.113281 40.105469 34.136719 93.867188 34.136719 53.757812 0 93.867187-18.023438 93.867187-34.136719 0-4.710938 3.820313-8.53125 8.53125-8.53125 4.714844 0 8.535157 3.820312 8.535157 8.53125 0 29.1875-47.691407 51.203125-110.933594 51.203125zm0 0"/><path d="m51.199219 59.757812h-8.53125c-4.714844 0-8.535157-3.820312-8.535157-8.53125 0-4.714843 3.820313-8.535156 8.535157-8.535156h8.53125c4.714843 0 8.535156 3.820313 8.535156 8.535156 0 4.710938-3.820313 8.53125-8.535156 8.53125zm0 0"/><path d="m179.199219 59.757812h-8.53125c-4.714844 0-8.535157-3.820312-8.535157-8.53125 0-4.714843 3.820313-8.535156 8.535157-8.535156h8.53125c4.714843 0 8.535156 3.820313 8.535156 8.535156 0 4.710938-3.820313 8.53125-8.535156 8.53125zm0 0"/><path d="m119.464844 42.691406h-17.066406c-4.710938 0-8.53125-3.820312-8.53125-8.53125 0-4.714844 3.820312-8.535156 8.53125-8.535156h17.066406c4.714844 0 8.535156 3.820312 8.535156 8.535156 0 4.710938-3.820312 8.53125-8.535156 8.53125zm0 0"/><path d="m119.464844 76.824219h-17.066406c-4.710938 0-8.53125-3.820313-8.53125-8.53125 0-4.714844 3.820312-8.535157 8.53125-8.535157h17.066406c4.714844 0 8.535156 3.820313 8.535156 8.535157 0 4.710937-3.820312 8.53125-8.535156 8.53125zm0 0"/><path d="m110.933594 238.960938c-14.140625 0-25.601563-11.464844-25.601563-25.601563v-42.667969c0-14.136718 11.460938-25.597656 25.601563-25.597656 14.136718 0 25.601562 11.460938 25.601562 25.597656v42.667969c0 14.136719-11.464844 25.601563-25.601562 25.601563zm0-76.800782c-4.714844 0-8.535156 3.820313-8.535156 8.53125v42.667969c0 4.710937 3.820312 8.535156 8.535156 8.535156 4.710937 0 8.53125-3.824219 8.53125-8.535156v-42.667969c0-4.710937-3.820313-8.53125-8.53125-8.53125zm0 0"/><path d="m110.933594 264.558594c-28.265625-.027344-51.171875-22.933594-51.199219-51.199219v-8.535156c0-4.710938 3.820313-8.53125 8.53125-8.53125 4.714844 0 8.535156 3.820312 8.535156 8.53125v8.535156c0 18.851563 15.28125 34.132813 34.132813 34.132813 18.851562 0 34.132812-15.28125 34.132812-34.132813v-8.535156c0-4.710938 3.820313-8.53125 8.535156-8.53125 4.710938 0 8.53125 3.820312 8.53125 8.53125v8.535156c-.027343 28.265625-22.933593 51.171875-51.199218 51.199219zm0 0"/><path d="m128 298.691406h-34.132812c-4.714844 0-8.535157-3.820312-8.535157-8.53125 0-4.714844 3.820313-8.535156 8.535157-8.535156h8.53125v-25.597656c0-4.714844 3.820312-8.535156 8.535156-8.535156 4.710937 0 8.53125 3.820312 8.53125 8.535156v25.597656h8.535156c4.710938 0 8.535156 3.820312 8.535156 8.535156 0 4.710938-3.824218 8.53125-8.535156 8.53125zm0 0"/><path d="m356.941406 366.789062c-4.714844.101563-8.617187-3.632812-8.722656-8.347656-.101562-4.710937 3.632812-8.617187 8.347656-8.71875 71.664063-3.230468 130.226563-58.324218 137.828125-129.660156 7.597657-71.335938-38.042969-137.527344-107.417969-155.785156-69.378906-18.257813-141.691406 16.894531-170.191406 82.730468-28.496094 65.835938-4.640625 142.617188 56.152344 180.707032 4.007812 2.496094 5.230469 7.769531 2.730469 11.777344-2.496094 4.003906-7.769531 5.226562-11.773438 2.730468-67.839843-42.53125-94.453125-128.226562-62.640625-201.703125 31.808594-73.476562 112.507813-112.710937 189.945313-92.34375 77.433593 20.363281 128.390625 94.222657 119.9375 173.839844-8.449219 79.621094-73.777344 141.136719-153.761719 144.789063zm0 0"/><path d="m256.273438 419.097656c-6.832032 0-13.03125-4.007812-15.828126-10.238281-2.886718-6.171875-1.6875-13.484375 3.019532-18.40625 12.632812-15.414063 18.539062-35.257813 16.390625-55.066406-.253907-4.707031 3.351562-8.730469 8.058593-8.988281 4.683594-.1875 8.667969 3.386718 8.984376 8.066406 2.46875 24.46875-5.109376 48.890625-21 67.660156 26.035156-.9375 72.183593-8.242188 93.53125-47.949219 1.445312-2.683593 4.214843-4.394531 7.261718-4.488281 3.050782-.089844 5.917969 1.449219 7.519532 4.046875 1.605468 2.59375 1.703124 5.84375.257812 8.53125-25.414062 47.265625-78.320312 55.894531-107.617188 56.824219zm0 0"/><path d="m469.332031 213.359375h-238.933593c-4.710938 0-8.53125-3.820313-8.53125-8.535156 0-4.710938 3.820312-8.53125 8.53125-8.53125h238.933593c4.714844 0 8.535157 3.820312 8.535157 8.53125 0 4.714843-3.820313 8.535156-8.535157 8.535156zm0 0"/><path d="m247.464844 213.359375c-4.710938 0-8.53125-3.820313-8.53125-8.535156v-25.597657c0-4.714843 3.820312-8.535156 8.53125-8.535156 4.714844 0 8.535156 3.820313 8.535156 8.535156v25.597657c0 4.714843-3.820312 8.535156-8.535156 8.535156zm0 0"/><path d="m281.601562 213.359375c-4.714843 0-8.535156-3.820313-8.535156-8.535156v-76.796875c0-4.714844 3.820313-8.535156 8.535156-8.535156 4.710938 0 8.53125 3.820312 8.53125 8.535156v76.796875c0 4.714843-3.820312 8.535156-8.53125 8.535156zm0 0"/><path d="m315.734375 213.359375c-4.714844 0-8.535156-3.820313-8.535156-8.535156v-34.132813c0-4.710937 3.820312-8.53125 8.535156-8.53125 4.710937 0 8.53125 3.820313 8.53125 8.53125v34.132813c0 4.714843-3.820313 8.535156-8.53125 8.535156zm0 0"/><path d="m452.265625 213.359375c-4.710937 0-8.53125-3.820313-8.53125-8.535156v-25.597657c0-4.714843 3.820313-8.535156 8.53125-8.535156 4.714844 0 8.535156 3.820313 8.535156 8.535156v25.597657c0 4.714843-3.820312 8.535156-8.535156 8.535156zm0 0"/><path d="m418.132812 213.359375c-4.710937 0-8.53125-3.820313-8.53125-8.535156v-76.796875c0-4.714844 3.820313-8.535156 8.53125-8.535156 4.714844 0 8.535157 3.820312 8.535157 8.535156v76.796875c0 4.714843-3.820313 8.535156-8.535157 8.535156zm0 0"/><path d="m384 213.359375c-4.710938 0-8.535156-3.820313-8.535156-8.535156v-34.132813c0-4.710937 3.824218-8.53125 8.535156-8.53125s8.535156 3.820313 8.535156 8.53125v34.132813c0 4.714843-3.824218 8.535156-8.535156 8.535156zm0 0"/><path d="m349.867188 213.359375c-4.714844 0-8.535157-3.820313-8.535157-8.535156v-17.066407c0-4.710937 3.820313-8.53125 8.535157-8.53125 4.710937 0 8.53125 3.820313 8.53125 8.53125v17.066407c0 4.714843-3.820313 8.535156-8.53125 8.535156zm0 0"/><path d="m247.464844 256.027344c-4.710938 0-8.53125-3.820313-8.53125-8.535156v-17.066407c0-4.710937 3.820312-8.53125 8.53125-8.53125 4.714844 0 8.535156 3.820313 8.535156 8.53125v17.066407c0 4.714843-3.820312 8.535156-8.535156 8.535156zm0 0"/><path d="m281.601562 307.226562c-4.714843 0-8.535156-3.820312-8.535156-8.535156v-68.265625c0-4.710937 3.820313-8.53125 8.535156-8.53125 4.710938 0 8.53125 3.820313 8.53125 8.53125v68.265625c0 4.714844-3.820312 8.535156-8.53125 8.535156zm0 0"/><path d="m315.734375 264.558594c-4.714844 0-8.535156-3.820313-8.535156-8.53125v-25.601563c0-4.710937 3.820312-8.53125 8.535156-8.53125 4.710937 0 8.53125 3.820313 8.53125 8.53125v25.601563c0 4.710937-3.820313 8.53125-8.53125 8.53125zm0 0"/><path d="m452.265625 256.027344c-4.710937 0-8.53125-3.820313-8.53125-8.535156v-17.066407c0-4.710937 3.820313-8.53125 8.53125-8.53125 4.714844 0 8.535156 3.820313 8.535156 8.53125v17.066407c0 4.714843-3.820312 8.535156-8.535156 8.535156zm0 0"/><path d="m418.132812 307.226562c-4.710937 0-8.53125-3.820312-8.53125-8.535156v-68.265625c0-4.710937 3.820313-8.53125 8.53125-8.53125 4.714844 0 8.535157 3.820313 8.535157 8.53125v68.265625c0 4.714844-3.820313 8.535156-8.535157 8.535156zm0 0"/><path d="m384 264.558594c-4.710938 0-8.535156-3.820313-8.535156-8.53125v-25.601563c0-4.710937 3.824218-8.53125 8.535156-8.53125s8.535156 3.820313 8.535156 8.53125v25.601563c0 4.710937-3.824218 8.53125-8.535156 8.53125zm0 0"/><path d="m349.867188 247.492188c-4.714844 0-8.535157-3.820313-8.535157-8.53125v-8.535157c0-4.710937 3.820313-8.53125 8.535157-8.53125 4.710937 0 8.53125 3.820313 8.53125 8.53125v8.535157c0 4.710937-3.820313 8.53125-8.53125 8.53125zm0 0"/></g></svg>